<svg width="359" height="484" viewBox="0 0 359 484" fill="none" xmlns="http://www.w3.org/2000/svg">
<path d="M114.763 455.458C115.011 455.522 115.446 455.681 116.071 455.937C116.724 456.204 117.548 456.561 118.519 456.982C120.458 457.822 122.968 458.914 125.804 460.039C131.467 462.288 138.463 464.687 144.853 465.493H144.855C147.829 465.849 150.671 466.847 152.588 468.651C154.407 470.363 155.443 472.846 154.907 476.364H108.954C109.532 472.678 108.429 469.909 106.378 467.967C104.244 465.948 101.137 464.87 98.001 464.5H98C95.0882 464.123 92.2106 463.521 89.3906 462.704V455.458H114.763Z" fill="#1A1A1A" stroke="#1A1A1A"/>
<path d="M67.7949 455.458C67.9795 455.502 68.2749 455.6 68.6885 455.761C69.1263 455.931 69.6699 456.159 70.3096 456.434C71.5796 456.979 73.2397 457.713 75.1348 458.519C78.938 460.135 83.7754 462.074 88.7793 463.532C91.7658 464.418 94.818 465.064 97.9072 465.464H97.9102C100.911 465.834 103.775 466.867 105.693 468.689C107.514 470.418 108.528 472.901 107.941 476.365L41.8945 476.651C41.8929 474.557 41.8776 466.95 41.7275 455.458H67.7949Z" fill="#1A1A1A" stroke="#1A1A1A"/>
<path d="M147.309 201.23C150.064 222.232 152.145 241.283 152.381 250.583L39.5723 251.101C39.8889 245.304 41.1953 229.096 42.4287 210.928C43.7189 211.361 45.0085 211.773 46.2988 212.16C54.0752 214.507 62.0291 216.221 70.082 217.284L70.0996 217.286C79.8816 218.212 87.4831 212.423 91.6953 208.458L91.8213 208.466C96.1477 208.711 100.326 209.346 103.831 210.558C107.341 211.772 110.125 213.548 111.738 216.043L111.887 216.272H112.617L112.766 216.102C116.25 212.138 121.975 209.517 127.775 208.706C133.584 207.893 139.34 208.911 142.932 212.057L143.072 212.181H144.096L144.203 211.826C144.812 209.813 145.93 205.94 147.309 201.23Z" fill="#1A1A1A" stroke="#1A1A1A"/>
<path d="M144.105 27.592C147.203 30.9711 160.381 45.4677 172.192 60.2434C178.214 67.7766 183.869 75.3679 187.652 81.5891C189.546 84.7024 190.957 87.4509 191.715 89.6643C192.094 90.7709 192.301 91.7224 192.334 92.5061C192.367 93.2909 192.222 93.867 191.941 94.2688L191.94 94.2698C191.114 95.4615 189.648 96.8598 187.676 98.4026C185.711 99.9397 183.274 101.598 180.535 103.312C175.058 106.739 168.398 110.375 161.948 113.701C155.5 117.027 149.267 120.04 144.646 122.222C142.337 123.313 140.43 124.195 139.101 124.805C138.436 125.11 137.916 125.347 137.562 125.507C137.386 125.587 137.25 125.649 137.159 125.69C137.114 125.71 137.079 125.726 137.056 125.737C137.044 125.742 137.036 125.746 137.03 125.748C137.027 125.75 137.025 125.751 137.023 125.751H137.022L137.021 125.752L136.673 125.908L136.732 126.286C137.968 134.102 139.602 144.536 141.578 157.251C136.455 157.31 131.267 158.187 126.922 159.966C122.719 161.687 119.256 164.272 117.449 167.819C115.868 163.924 112.295 161.049 107.846 158.996C103.091 156.803 97.2596 155.512 91.5566 154.923C85.8512 154.334 80.2411 154.443 75.916 155.069C73.7559 155.381 71.8957 155.825 70.498 156.386C69.7993 156.666 69.1994 156.983 68.7324 157.338C68.2699 157.69 67.9079 158.104 67.7344 158.587C67.6351 158.855 67.5655 159.349 67.5068 159.957C67.4457 160.591 67.392 161.42 67.3438 162.406C67.2473 164.378 67.1739 167.001 67.123 170.002C67.0238 175.866 67.0091 183.19 67.0625 189.965C65.3798 190.117 63.7692 190.729 62.4092 191.738C61.1215 192.692 60.1085 193.965 59.4658 195.427C57.8975 194.704 56.2429 193.917 54.6113 193.127L53.8936 192.78V193.761C53.855 193.786 53.8118 193.812 53.7656 193.843C53.5305 193.999 53.1996 194.234 52.8057 194.554C52.0177 195.194 50.976 196.178 49.9482 197.558C47.8976 200.312 45.9154 204.63 46.0869 210.913L46.0254 211.112C44.7546 210.72 43.4471 210.309 42.165 209.873H42.166C33.3014 206.851 23.8798 202.565 16.3223 196.583C9.00478 190.791 3.45973 183.431 1.82324 174.104L1.67773 173.196C1.12891 169.366 1.90638 165.919 3.26465 162.531C4.63521 159.111 6.55514 155.839 8.30566 152.249V152.247C9.36701 150.053 11.7234 146.376 14.7783 141.99C17.8265 137.615 21.5512 132.563 25.334 127.633C29.1168 122.703 32.9543 117.9 36.2266 114.021C39.5105 110.128 42.1952 107.203 43.6826 105.997L43.6895 105.992C45.3512 104.602 48.0614 103.327 51.2471 102.199C54.4198 101.077 58.0137 100.117 61.4004 99.3362C64.7854 98.5555 67.9558 97.9542 70.2803 97.5491C71.4422 97.3466 72.3926 97.193 73.0518 97.0901C73.3809 97.0387 73.6374 96.9998 73.8115 96.9739C73.8986 96.9609 73.9652 96.951 74.0098 96.9446C74.032 96.9413 74.0494 96.9393 74.0605 96.9377C74.0657 96.937 74.0696 96.9362 74.0723 96.9358H74.0762L74.416 96.887L74.4932 96.553C74.9963 94.3705 76.2472 92.4334 78.0273 91.0764C78.3369 90.9456 78.8512 90.8088 79.5664 90.6799C80.3054 90.5468 81.2241 90.4263 82.2842 90.3206C84.404 90.1091 87.0671 89.959 89.9443 89.8831C95.7017 89.7311 102.284 89.8762 107.055 90.4094H107.056C107.547 90.464 108.023 90.6095 108.46 90.8401V90.8411C109.487 91.4206 110.367 92.2284 111.033 93.2014C111.699 94.1743 112.133 95.2866 112.302 96.4534L112.377 96.9709L112.891 96.8733L162.213 87.4729L162.871 87.3479L162.563 86.7522C152.913 68.0595 146.121 56.9958 133.607 35.2952C134.524 33.1723 135.995 31.3343 137.867 29.9758C139.702 28.6452 141.854 27.8245 144.105 27.592ZM44.2988 158.053C40.2666 162.618 36.4696 167.386 32.9229 172.338L32.9102 172.356L32.8994 172.374C31.4907 174.754 32.1452 177.345 33.9834 179.882C35.8194 182.416 38.9092 185.016 42.6523 187.55L43.4326 188.078V186.984C44.3607 174.163 44.9415 163.951 45.1738 158.405L45.2324 156.996L44.2988 158.053Z" fill="#1A1A1A" stroke="#1A1A1A"/>
<path d="M41.2512 482.608H108.214V477.096H41.2512V482.608Z" stroke="#1A1A1A" stroke-width="0.86" stroke-linecap="round" stroke-linejoin="round"/>
<path d="M155.215 477.124H108.329V482.637H155.215V477.124Z" stroke="#1A1A1A" stroke-width="0.86" stroke-linecap="round" stroke-linejoin="round"/>
<path d="M145.671 465.025V411.67H245.361V443.323" stroke="#1A1A1A" stroke-width="0.86" stroke-miterlimit="10" stroke-linecap="round"/>
<path d="M245.361 470.683V482.637H145.671" stroke="#1A1A1A" stroke-width="0.86" stroke-miterlimit="10" stroke-linecap="round"/>
<path d="M333.936 428.585C322.833 418.768 308.931 412.68 294.188 411.177" stroke="#1A1A1A" stroke-width="0.86" stroke-miterlimit="10" stroke-linecap="round"/>
<path d="M334.866 463.082C337.193 469.137 338.383 475.569 338.377 482.056H358.048C358.07 469.37 354.672 456.912 348.212 445.993" stroke="#1A1A1A" stroke-width="0.86" stroke-miterlimit="10" stroke-linecap="round"/>
<path d="M294.074 430.993C305.403 432.375 315.913 437.61 323.842 445.819" stroke="#1A1A1A" stroke-width="0.86" stroke-miterlimit="10" stroke-linecap="round"/>
<path d="M303.414 413.556L299.497 431.602" stroke="#1A1A1A" stroke-width="0.86" stroke-miterlimit="10" stroke-linecap="round"/>
<path d="M319.837 419.301L311.8 436.621" stroke="#1A1A1A" stroke-width="0.86" stroke-miterlimit="10" stroke-linecap="round"/>
<path d="M332.834 427.772L321.142 443.265" stroke="#1A1A1A" stroke-width="0.86" stroke-miterlimit="10" stroke-linecap="round"/>
<path d="M337.766 460.093L353.056 455.944" stroke="#1A1A1A" stroke-width="0.86" stroke-miterlimit="10" stroke-linecap="round"/>
<path d="M337.709 472.539L356.742 470.973" stroke="#1A1A1A" stroke-width="0.86" stroke-miterlimit="10" stroke-linecap="round"/>
<path d="M224.993 448.894C235.091 464.561 250.933 475.641 269.113 479.753C287.293 483.865 306.361 480.68 322.218 470.884C338.076 461.088 349.457 445.461 353.916 427.363C358.375 409.265 355.557 390.14 346.066 374.098L329.325 384.426C333.06 390.179 335.607 396.621 336.818 403.372C338.03 410.123 337.88 417.048 336.379 423.74C334.877 430.433 332.054 436.758 328.074 442.344C324.095 447.931 319.04 452.666 313.205 456.272C307.371 459.879 300.875 462.283 294.099 463.344C287.322 464.406 280.402 464.103 273.745 462.453C267.087 460.804 260.826 457.841 255.329 453.739C249.832 449.637 245.21 444.478 241.734 438.565L224.993 448.894Z" stroke="#1A1A1A" stroke-width="0.86" stroke-miterlimit="10" stroke-linecap="round"/>
<path d="M352.798 389.736L334.839 395.509" stroke="#1A1A1A" stroke-width="0.86" stroke-miterlimit="10" stroke-linecap="round"/>
<path d="M356.075 408.421L337.448 409.146" stroke="#1A1A1A" stroke-width="0.86" stroke-miterlimit="10" stroke-linecap="round"/>
<path d="M355.174 425.771L336.199 421.302" stroke="#1A1A1A" stroke-width="0.86" stroke-miterlimit="10" stroke-linecap="round"/>
<path d="M349.781 441.902L332.054 434.155" stroke="#1A1A1A" stroke-width="0.86" stroke-miterlimit="10" stroke-linecap="round"/>
<path d="M338.84 458.73L324.798 445.384" stroke="#1A1A1A" stroke-width="0.86" stroke-miterlimit="10" stroke-linecap="round"/>
<path d="M324.132 471.118L314.412 454.639" stroke="#1A1A1A" stroke-width="0.86" stroke-miterlimit="10" stroke-linecap="round"/>
<path d="M307.479 478.459L301.328 461.051" stroke="#1A1A1A" stroke-width="0.86" stroke-miterlimit="10" stroke-linecap="round"/>
<path d="M290.474 482.201L288.24 463.227" stroke="#1A1A1A" stroke-width="0.86" stroke-miterlimit="10" stroke-linecap="round"/>
<path d="M274.984 481.824L276.783 462.501" stroke="#1A1A1A" stroke-width="0.86" stroke-miterlimit="10" stroke-linecap="round"/>
<path d="M258.937 477.502L265.697 459.223" stroke="#1A1A1A" stroke-width="0.86" stroke-miterlimit="10" stroke-linecap="round"/>
<path d="M256.007 454.233L242.98 468.507" stroke="#1A1A1A" stroke-width="0.86" stroke-miterlimit="10" stroke-linecap="round"/>
<path d="M247.302 446.283L231.925 457.657" stroke="#1A1A1A" stroke-width="0.86" stroke-miterlimit="10" stroke-linecap="round"/>
<path d="M200.188 333.828C174.624 339.018 151.887 353.487 136.358 374.447" stroke="#1A1A1A" stroke-width="0.86" stroke-miterlimit="10" stroke-linecap="round"/>
<path d="M186.173 369.253C190.727 366.85 195.508 364.906 200.447 363.45" stroke="#1A1A1A" stroke-width="0.86" stroke-miterlimit="10" stroke-linecap="round"/>
<path d="M149.18 411.699C154.161 397.522 163.252 385.149 175.292 376.157" stroke="#1A1A1A" stroke-width="0.86" stroke-miterlimit="10" stroke-linecap="round"/>
<path d="M138.356 463.72L145.61 461.37" stroke="#1A1A1A" stroke-width="0.86" stroke-miterlimit="10" stroke-linecap="round"/>
<path d="M119.006 441.467L144.218 440.394" stroke="#1A1A1A" stroke-width="0.86" stroke-miterlimit="10" stroke-linecap="round"/>
<path d="M125.823 417.617L145.552 422.376" stroke="#1A1A1A" stroke-width="0.86" stroke-miterlimit="10" stroke-linecap="round"/>
<path d="M131.829 394.349L152.196 403.46" stroke="#1A1A1A" stroke-width="0.86" stroke-miterlimit="10" stroke-linecap="round"/>
<path d="M142.275 367.193L162.933 386.864" stroke="#1A1A1A" stroke-width="0.86" stroke-miterlimit="10" stroke-linecap="round"/>
<path d="M163.92 348.798L176.425 370.036" stroke="#1A1A1A" stroke-width="0.86" stroke-miterlimit="10" stroke-linecap="round"/>
<path d="M188.553 337.976L197.605 363.682" stroke="#1A1A1A" stroke-width="0.86" stroke-miterlimit="10" stroke-linecap="round"/>
<path d="M168.969 435.722L160.265 444.426" stroke="#1A1A1A" stroke-width="0.86" stroke-miterlimit="10" stroke-linecap="round"/>
<path d="M160.148 435.722L168.852 444.426" stroke="#1A1A1A" stroke-width="0.86" stroke-miterlimit="10" stroke-linecap="round"/>
<path d="M243.36 231.795H243.361C245.458 231.791 247.535 232.201 249.474 233.001C251.412 233.801 253.174 234.975 254.658 236.457C256.142 237.938 257.32 239.698 258.123 241.635C258.926 243.571 259.34 245.648 259.34 247.745V247.746C259.345 250.908 258.413 254 256.66 256.632C254.908 259.263 252.414 261.315 249.495 262.529C246.576 263.743 243.361 264.063 240.26 263.45C237.158 262.837 234.309 261.317 232.071 259.084C229.834 256.85 228.309 254.003 227.69 250.902C227.072 247.802 227.386 244.587 228.595 241.666C229.803 238.744 231.851 236.247 234.479 234.49C237.108 232.733 240.199 231.795 243.36 231.795ZM251.557 237.807C251.098 237.807 250.656 237.985 250.325 238.303L250.318 238.31L243.36 245.267C239.891 241.797 236.714 238.595 236.39 238.3H236.391C236.388 238.298 236.386 238.296 236.384 238.294C236.383 238.293 236.382 238.292 236.381 238.291H236.38C236.214 238.138 236.021 238.018 235.811 237.938C235.595 237.857 235.366 237.819 235.136 237.827C234.906 237.834 234.679 237.887 234.47 237.982C234.26 238.077 234.071 238.213 233.914 238.381C233.757 238.548 233.635 238.746 233.554 238.961C233.473 239.176 233.435 239.405 233.442 239.635C233.45 239.865 233.503 240.092 233.598 240.302C233.69 240.506 233.821 240.69 233.983 240.844V240.845L240.884 247.745C237.646 250.985 234.657 253.999 233.962 254.667L233.942 254.686C233.709 254.936 233.553 255.249 233.493 255.586C233.433 255.922 233.471 256.269 233.604 256.585C233.736 256.9 233.956 257.171 234.238 257.364C234.521 257.557 234.852 257.665 235.194 257.675H235.196C235.432 257.68 235.666 257.635 235.883 257.541C236.091 257.451 236.277 257.316 236.431 257.15L236.432 257.151L243.36 250.221C246.05 252.885 248.672 255.505 250.282 257.143V257.144C250.445 257.314 250.641 257.449 250.857 257.541C251.074 257.633 251.307 257.68 251.542 257.68C251.777 257.68 252.01 257.633 252.227 257.541C252.443 257.449 252.639 257.314 252.802 257.144L253.272 256.654L253.122 256.579C253.218 256.371 253.275 256.144 253.286 255.911C253.309 255.448 253.152 254.993 252.849 254.642L252.837 254.629L252.823 254.615L245.867 247.686L252.793 240.788L252.794 240.789C252.957 240.626 253.087 240.433 253.176 240.22C253.264 240.008 253.31 239.779 253.31 239.549C253.31 239.318 253.264 239.09 253.176 238.878C253.087 238.665 252.957 238.472 252.794 238.309L252.788 238.303C252.457 237.985 252.016 237.807 251.557 237.807Z" fill="#1A1A1A" stroke="#1A1A1A"/>
<path d="M212.95 435.722L204.246 444.426" stroke="#1A1A1A" stroke-width="0.86" stroke-miterlimit="10" stroke-linecap="round"/>
<path d="M204.103 435.722L212.807 444.426" stroke="#1A1A1A" stroke-width="0.86" stroke-miterlimit="10" stroke-linecap="round"/>
<path d="M200.708 411.641V334.61H294.073V461.718" stroke="#1A1A1A" stroke-width="0.86" stroke-miterlimit="10" stroke-linecap="round"/>
<path d="M342.264 376.158C345.774 374.765 351.78 364.32 346.819 355.355C341.451 345.607 332.544 346.1 328.889 347.928C331.79 354.659 339.072 370.239 342.032 376.216" stroke="#1A1A1A" stroke-width="0.86" stroke-miterlimit="10" stroke-linecap="round"/>
<path d="M318.792 353.789C315.281 355.21 309.275 365.626 314.237 374.591C319.604 384.34 328.511 383.846 332.167 382.047C329.266 375.316 321.983 359.707 319.024 353.76" stroke="#1A1A1A" stroke-width="0.86" stroke-miterlimit="10" stroke-linecap="round"/>
<path d="M157.508 458.208C160.177 458.208 160.177 476.109 162.846 476.109C165.515 476.109 165.515 458.208 168.214 458.208C170.912 458.208 170.883 476.109 173.552 476.109C176.221 476.109 176.221 458.208 178.891 458.208C181.56 458.208 181.56 476.109 184.229 476.109C186.898 476.109 186.927 458.208 189.597 458.208C192.266 458.208 192.266 476.109 194.964 476.109C197.662 476.109 197.633 458.208 200.302 458.208C202.972 458.208 203.001 476.109 205.67 476.109C208.339 476.109 208.368 458.208 211.037 458.208C213.707 458.208 213.736 476.109 216.405 476.109" stroke="#1A1A1A" stroke-width="0.86" stroke-miterlimit="10" stroke-linecap="round"/>
<path d="M217.914 411.467L233.929 380.8" stroke="#1A1A1A" stroke-width="0.86" stroke-miterlimit="10" stroke-linecap="round"/>
<path d="M235.699 380.655C239.288 380.655 242.198 377.746 242.198 374.156C242.198 370.567 239.288 367.657 235.699 367.657C232.11 367.657 229.2 370.567 229.2 374.156C229.2 377.746 232.11 380.655 235.699 380.655Z" stroke="#1A1A1A" stroke-width="0.86" stroke-miterlimit="10" stroke-linecap="round"/>
<path d="M163.832 411.467L179.847 380.8" stroke="#1A1A1A" stroke-width="0.86" stroke-miterlimit="10" stroke-linecap="round"/>
<path d="M181.617 380.655C185.206 380.655 188.116 377.746 188.116 374.156C188.116 370.567 185.206 367.657 181.617 367.657C178.028 367.657 175.118 370.567 175.118 374.156C175.118 377.746 178.028 380.655 181.617 380.655Z" stroke="#1A1A1A" stroke-width="0.86" stroke-miterlimit="10" stroke-linecap="round"/>
<path d="M254.875 451.737V368.759H293.753" stroke="#1A1A1A" stroke-width="0.86" stroke-miterlimit="10" stroke-linecap="round"/>
<path d="M236.163 334.61C236.163 334.61 198.446 287.696 197.692 287.028C196.502 285.752 181.676 294.601 185.912 312.415C190.148 330.229 200.999 334.465 200.999 334.465" stroke="#1A1A1A" stroke-width="0.86" stroke-miterlimit="10" stroke-linecap="round"/>
<path d="M230.07 326.516C231.14 325.793 232.443 325.502 233.719 325.701C234.994 325.901 236.146 326.576 236.944 327.59C237.742 328.605 238.126 329.884 238.019 331.171C237.911 332.457 237.321 333.655 236.366 334.524" stroke="#1A1A1A" stroke-width="0.86" stroke-miterlimit="10" stroke-linecap="round"/>
<path d="M223.803 318.537C224.872 317.815 226.176 317.524 227.451 317.723C228.726 317.922 229.879 318.597 230.677 319.612C231.474 320.627 231.858 321.906 231.751 323.192C231.644 324.479 231.053 325.677 230.099 326.545" stroke="#1A1A1A" stroke-width="0.86" stroke-miterlimit="10" stroke-linecap="round"/>
<path d="M217.535 310.588C218.605 309.865 219.908 309.574 221.183 309.773C222.459 309.973 223.611 310.647 224.409 311.662C225.207 312.677 225.591 313.956 225.484 315.242C225.376 316.529 224.786 317.727 223.831 318.595" stroke="#1A1A1A" stroke-width="0.86" stroke-miterlimit="10" stroke-linecap="round"/>
<path d="M211.271 302.609C212.34 301.886 213.643 301.595 214.919 301.795C216.194 301.994 217.347 302.669 218.144 303.684C218.942 304.698 219.326 305.978 219.219 307.264C219.112 308.55 218.521 309.748 217.566 310.617" stroke="#1A1A1A" stroke-width="0.86" stroke-miterlimit="10" stroke-linecap="round"/>
<path d="M204.973 294.659C206.035 293.801 207.394 293.4 208.751 293.545C210.109 293.689 211.354 294.366 212.211 295.428C213.069 296.49 213.47 297.849 213.326 299.207C213.182 300.564 212.505 301.809 211.443 302.667" stroke="#1A1A1A" stroke-width="0.86" stroke-miterlimit="10" stroke-linecap="round"/>
<path d="M198.707 286.681C199.774 285.907 201.099 285.575 202.405 285.755C203.711 285.935 204.897 286.614 205.714 287.648C206.531 288.683 206.917 289.994 206.789 291.306C206.662 292.618 206.033 293.83 205.032 294.689" stroke="#1A1A1A" stroke-width="0.86" stroke-miterlimit="10" stroke-linecap="round"/>
<path d="M286.876 328.17C285.019 323.615 273.327 303.799 282.495 300.81C288.472 298.837 304.052 319.408 299.09 322.454C295.232 324.833 285.802 301.361 288.733 296.719C293.897 288.567 309.042 308.034 309.68 312.938C310.522 318.334 306.779 315.839 304.922 312.735C300.86 306.207 296.885 294.746 302.891 288.305" stroke="#1A1A1A" stroke-width="0.86" stroke-miterlimit="10" stroke-linecap="round"/>
<path d="M178.92 329.417C175.207 329.795 158.263 333.972 158.06 326.661C158.06 321.903 176.251 315.056 177.412 319.292C178.311 322.628 159.191 324.369 156.464 321.236C151.648 315.723 169.056 309.021 172.799 309.63C176.541 310.24 174.162 312.329 171.609 313.025C165.98 314.563 156.783 314.969 153.389 309.224" stroke="#1A1A1A" stroke-width="0.86" stroke-miterlimit="10" stroke-linecap="round"/>
<path d="M253.629 276.323H218.378C216.674 276.418 215.002 275.833 213.729 274.696C212.456 273.559 211.686 271.963 211.589 270.259V225.782C211.686 224.076 212.455 222.477 213.727 221.336C214.999 220.194 216.671 219.602 218.378 219.689H268.252C269.954 219.602 271.622 220.19 272.893 221.325C274.164 222.461 274.936 224.052 275.041 225.753V270.23C274.944 271.934 274.174 273.53 272.901 274.667C271.628 275.804 269.956 276.389 268.252 276.294H261.492" stroke="#1A1A1A" stroke-width="0.86" stroke-linecap="round" stroke-linejoin="round"/>
<path d="M261.694 272.755C261.694 272.755 259.838 286.159 256.559 288.712C253.281 291.265 253.977 270.172 253.977 270.172" stroke="#1A1A1A" stroke-width="0.86" stroke-linecap="round" stroke-linejoin="round"/>
<path d="M109.443 36.7026L109.481 36.7085H109.55C109.642 36.7085 109.733 36.7266 109.817 36.7622C109.902 36.7979 109.979 36.8507 110.043 36.9165C110.107 36.9823 110.158 37.0604 110.191 37.146C110.225 37.2315 110.241 37.3227 110.239 37.4146V37.4272C110.239 37.5192 110.22 37.6101 110.185 37.6948C110.149 37.7794 110.097 37.8562 110.031 37.9204C109.965 37.9846 109.887 38.0352 109.802 38.0688C109.716 38.1025 109.624 38.1189 109.532 38.1167L109.487 38.1157L109.443 38.1226C109.341 38.1385 109.236 38.1323 109.137 38.104C109.037 38.0757 108.944 38.0259 108.865 37.9585C108.786 37.891 108.723 37.8066 108.68 37.7124C108.636 37.6184 108.614 37.5161 108.614 37.4126C108.614 37.3089 108.636 37.206 108.68 37.1118C108.723 37.0177 108.787 36.9341 108.865 36.8667C108.944 36.7992 109.037 36.7495 109.137 36.7212C109.236 36.6929 109.341 36.6867 109.443 36.7026Z" fill="#1A1A1A" stroke="#1A1A1A"/>
<path d="M93.2607 36.1865C93.355 36.1887 93.4479 36.21 93.5342 36.248C93.6204 36.2862 93.6986 36.341 93.7637 36.4092C93.8288 36.4775 93.88 36.5584 93.9141 36.6465C93.948 36.7345 93.9642 36.8286 93.9619 36.9229V36.9346C93.9619 37.0265 93.9438 37.1175 93.9082 37.2021C93.8725 37.2869 93.8197 37.3635 93.7539 37.4277C93.6881 37.492 93.61 37.5425 93.5244 37.5762C93.4389 37.6097 93.3477 37.6263 93.2559 37.624C93.1615 37.6218 93.0678 37.6007 92.9814 37.5625C92.8953 37.5243 92.817 37.4696 92.752 37.4014C92.6869 37.3331 92.6355 37.2529 92.6016 37.165C92.5676 37.077 92.5515 36.983 92.5537 36.8887V36.876C92.5537 36.7841 92.5727 36.6931 92.6084 36.6084C92.6441 36.5238 92.696 36.447 92.7617 36.3828C92.8275 36.3186 92.9057 36.268 92.9912 36.2344C93.0339 36.2176 93.0782 36.2052 93.123 36.1973L93.2607 36.1865Z" fill="#1A1A1A" stroke="#1A1A1A"/>
<path d="M88.1934 384.659C88.4545 415.587 88.8317 442.279 88.9767 454.958C88.9767 459.426 88.9767 462.153 88.9767 462.704" stroke="#1A1A1A" stroke-width="0.86" stroke-miterlimit="10"/>
<path d="M59.3251 261.729C59.7023 274.263 50.9983 281.778 40.2634 284.766C37.3166 285.573 34.2914 286.059 31.2402 286.217" stroke="#1A1A1A" stroke-width="0.86" stroke-miterlimit="10" stroke-linecap="round"/>
<path d="M104.385 276.381C102.776 312.937 97.3107 349.222 88.0796 384.63C81.9578 409.291 74.8205 432.879 67.9733 454.639V454.929C69.7722 455.306 79.0854 460.122 89.037 463.024C91.9986 463.902 95.0256 464.542 98.0892 464.938C104.182 465.664 109.927 469.029 108.505 476.805L41.5422 477.095C41.5422 476.196 41.5422 468.014 41.3682 454.9C40.991 418.778 40.1496 345.375 40.4107 284.708C40.4107 273.335 40.4107 262.426 40.6718 252.271" stroke="#1A1A1A" stroke-width="0.86" stroke-linecap="round" stroke-linejoin="round"/>
<path d="M150.95 252.822C149.123 332.869 131.599 401.66 114.829 454.928C117.15 455.422 132.237 463.458 144.945 464.938C151.008 465.663 156.782 469.029 155.36 476.804H107.808" stroke="#1A1A1A" stroke-width="0.86" stroke-linecap="round" stroke-linejoin="round"/>
<path d="M115.932 454.958H114.83H89.4141" stroke="#1A1A1A" stroke-width="0.86" stroke-miterlimit="10"/>
<path d="M67.8844 454.958H67.8553H41.3662" stroke="#1A1A1A" stroke-width="0.86" stroke-miterlimit="10"/>
<path d="M121.126 32.292C123.679 42.3306 109.52 65.9474 105.372 67.5432C104.867 67.7453 104.341 67.8913 103.805 67.9784C97.8281 69.0518 90.2846 63.7424 87.7314 58.491" stroke="#1A1A1A" stroke-width="0.86" stroke-miterlimit="10" stroke-linecap="round"/>
<path d="M79.8975 26.896C80.1006 25.4743 80.3036 23.9947 80.5648 22.2829C80.9264 19.7304 81.4399 17.2018 82.1025 14.7104C82.9084 11.3174 84.476 8.15241 86.6866 5.45516C95.1294 -3.97416 104.356 3.04706 111.174 12.7665C113.069 15.5051 114.785 18.3641 116.309 21.3254" stroke="#1A1A1A" stroke-width="0.86" stroke-miterlimit="10" stroke-linecap="round"/>
<path d="M77.8089 90.1442C77.8089 72.9683 76.9095 56.7499 78.3312 39.603" stroke="#1A1A1A" stroke-width="0.86" stroke-miterlimit="10"/>
<path d="M103.716 67.2822V67.9785C104.33 75.5613 106.03 83.0164 108.764 90.1157" stroke="#1A1A1A" stroke-width="0.86" stroke-miterlimit="10"/>
<path d="M82.2772 29.9418C81.5773 28.8688 80.7383 27.8932 79.7821 27.0405C72.993 21.2378 68.4959 34.1197 71.2812 37.8044C72.1648 38.7221 73.2987 39.3599 74.5419 39.6385C75.785 39.917 77.0826 39.8241 78.2734 39.3711C78.8131 39.204 79.3373 38.9905 79.8401 38.7328" stroke="#1A1A1A" stroke-width="0.86" stroke-miterlimit="10" stroke-linecap="round"/>
<path d="M81.1715 22.0505L80.5622 22.2826C76.7905 23.5012 57.5837 28.8106 57.3516 22.2826C57.3516 18.2788 69.3341 16.0448 82.0129 14.7972C95.2429 13.4626 109.14 13.2015 110.678 13.0564" stroke="#1A1A1A" stroke-width="0.86" stroke-miterlimit="10"/>
<path d="M78.4772 32.2625C77.2399 33.4002 75.6315 34.0497 73.9512 34.0903" stroke="#1A1A1A" stroke-width="0.86" stroke-miterlimit="10" stroke-linecap="round"/>
<path d="M41.8603 210.724C40.6708 229.553 39.3071 246.352 38.959 251.662L152.923 251.604C152.749 242.116 150.515 222.039 147.614 200.076" stroke="#1A1A1A" stroke-width="0.86" stroke-linecap="round" stroke-linejoin="round"/>
<path d="M44.6739 158.384C44.4417 163.926 43.8615 174.138 43.0781 186.875" stroke="#1A1A1A" stroke-width="0.86" stroke-linecap="round" stroke-linejoin="round"/>
<path d="M60.8633 196.479L59.8479 196.014C58.02 195.202 56.1922 194.332 54.3934 193.461C50.4476 191.514 46.6208 189.334 42.9331 186.933C35.4767 181.972 30.8056 176.778 33.3297 172.426C36.8666 167.488 40.6529 162.734 44.6739 158.181C51.8008 149.66 59.5596 141.687 67.8846 134.332" stroke="#1A1A1A" stroke-width="0.86" stroke-linejoin="round"/>
<path d="M132.325 15.5228C132.122 15.1746 131.628 14.3622 130.961 13.3758C129.249 10.9096 126.551 7.22496 126.029 6.49963C124.201 3.94646 122.083 4.23659 119.385 5.42613C117.615 6.20949 111.58 7.97931 112.19 10.8226C113.031 14.6234 119.936 10.8226 121.271 11.0257C122.605 11.2288 123.911 14.3622 124.926 16.045" stroke="#1A1A1A" stroke-width="0.86" stroke-miterlimit="10" stroke-linecap="round"/>
<path d="M127.535 16.886C126.668 16.616 125.787 16.3933 124.895 16.2187C120.34 15.4063 118.367 16.886 117.497 18.7138C117.033 19.6423 116.626 20.5127 116.249 21.354C115.239 23.1426 114.597 25.1158 114.363 27.1567C114.306 27.6396 114.398 28.1286 114.626 28.5578C114.855 28.9869 115.21 29.3356 115.643 29.5569C116.076 29.7782 116.567 29.8614 117.049 29.7954C117.531 29.7294 117.981 29.5173 118.338 29.1876" stroke="#1A1A1A" stroke-width="0.86" stroke-miterlimit="10" stroke-linecap="round"/>
<path d="M141.81 157.543C139.924 144.661 138.154 134.1 136.907 126.208C136.907 126.208 185.156 104.593 192.032 94.5548C197.835 86.199 149.498 33.0756 143.986 27.0699L143.493 26.5186C143.493 26.5186 134.992 11.0545 136.442 6.41241C138.212 0.609745 133.28 0.609748 131.539 6.78958C130.783 8.88785 130.564 11.1419 130.901 13.3466" stroke="#1A1A1A" stroke-width="0.86" stroke-miterlimit="10" stroke-linecap="round"/>
<path d="M54.3654 194.041C54.3654 194.041 46.2127 198.567 46.5898 210.985" stroke="#1A1A1A" stroke-width="0.86" stroke-miterlimit="10" stroke-linecap="round"/>
<path d="M70.1765 216.788C62.1193 215.714 54.1628 213.987 46.3856 211.624C44.9639 211.188 43.4842 210.724 42.0336 210.231C24.2194 204.283 4.08418 193.113 1.18285 173.268C0.0513271 165.376 4.40333 159.11 7.85591 152.03C12.1789 143.094 37.2464 110.57 43.3682 105.609C50.3024 99.8064 74.0062 96.4409 74.0062 96.4409C74.5406 94.1227 75.8764 92.0677 77.778 90.6382C80.6793 89.3326 97.507 88.8394 107.11 89.9129C107.669 89.9749 108.21 90.1422 108.706 90.4061C109.8 91.0232 110.737 91.8829 111.446 92.9191C112.155 93.9552 112.618 95.1402 112.797 96.3829L162.12 86.9826C152.458 68.269 145.669 57.2149 133.106 35.4259V35.1938C132.439 33.9172 129.015 27.4473 128.87 27.3892C128.725 27.3312 124.692 27.3892 124.692 27.3892L123.764 29.9714C123.578 30.5882 123.192 31.1254 122.666 31.4984C122.141 31.8714 121.506 32.0589 120.863 32.0314C119.673 32.0314 118.6 31.3931 118.6 30.4937C118.561 30.1369 118.561 29.777 118.6 29.4202C118.876 26.9726 119.888 24.6662 121.501 22.8051C123.039 21.6156 125.824 22.0508 128.116 22.2539" stroke="#1A1A1A" stroke-width="0.86" stroke-linecap="round" stroke-linejoin="round"/>
<path d="M144.102 27.0696C141.673 27.2741 139.345 28.1391 137.371 29.5709C135.397 31.0028 133.852 32.947 132.903 35.1933" stroke="#1A1A1A" stroke-width="0.86" stroke-miterlimit="10" stroke-linecap="round"/>
<path d="M97.2461 58.056C98.167 57.3732 99.2745 56.9878 100.42 56.9516C101.566 56.9153 102.696 57.2297 103.658 57.8529" stroke="#1A1A1A" stroke-width="0.86" stroke-linecap="round" stroke-linejoin="round"/>
<path d="M96.0578 29.3327C95.5699 28.8745 94.9913 28.5236 94.3594 28.3028C93.7275 28.0821 93.0564 27.9962 92.3893 28.0509C91.7222 28.1056 91.074 28.2996 90.4865 28.6203C89.899 28.941 89.3853 29.3814 88.9785 29.913" stroke="#1A1A1A" stroke-width="0.86" stroke-miterlimit="10" stroke-linecap="round"/>
<path d="M111.927 29.2457C111.444 28.7839 110.868 28.4297 110.238 28.2066C109.608 27.9834 108.938 27.8964 108.272 27.9512C107.605 28.0061 106.958 28.2015 106.373 28.5247C105.788 28.8478 105.278 29.2913 104.877 29.826" stroke="#1A1A1A" stroke-width="0.86" stroke-miterlimit="10" stroke-linecap="round"/>
<path d="M104.703 30.2031C103.223 33.7427 104.703 39.3133 105.312 42.998C105.632 45.5221 106.096 50.3674 101.802 48.8006" stroke="#1A1A1A" stroke-width="0.86" stroke-miterlimit="10" stroke-linecap="round"/>
<path d="M117.121 169.119C117.157 168.998 117.206 168.882 117.266 168.771C120.487 161.228 131.338 157.804 141.84 157.746C147.699 157.555 153.519 158.768 158.813 161.286" stroke="#1A1A1A" stroke-width="0.86" stroke-linecap="round" stroke-linejoin="round"/>
<path d="M68.2031 158.761C70.2631 152.958 111.926 152.407 116.974 168.829L112.245 214.786" stroke="#1A1A1A" stroke-width="0.86" stroke-linecap="round" stroke-linejoin="round"/>
<path d="M159.219 161.488C157.884 163.925 151.473 185.453 147.179 200.076C145.612 205.414 144.277 209.853 143.668 212.058C143.685 212.125 143.685 212.195 143.668 212.262" stroke="#1A1A1A" stroke-width="0.86" stroke-linecap="round" stroke-linejoin="round"/>
<path d="M143.232 211.943C135.747 205.386 119.529 207.881 112.362 216.034" stroke="#1A1A1A" stroke-width="0.86" stroke-linecap="round" stroke-linejoin="round"/>
<path d="M67.8564 201.237C67.8564 199.264 67.8564 197.059 67.8564 194.738C67.8564 193.374 67.8564 191.836 67.8564 190.502C67.8564 176.691 67.8564 160.386 68.4947 158.819" stroke="#1A1A1A" stroke-width="0.86" stroke-linecap="round" stroke-linejoin="round"/>
<path d="M112.13 215.889C108.764 210.637 100.524 208.577 91.8203 208.084" stroke="#1A1A1A" stroke-width="0.86" stroke-linecap="round" stroke-linejoin="round"/>
<path d="M86.1637 197.464C88.5428 194.911 85.9026 190.878 82.7111 193.49C78.156 197.232 72.1793 201.236 67.8563 201.207H66.7828H66.1445" stroke="#1A1A1A" stroke-width="0.86" stroke-linejoin="round"/>
<path d="M77.9813 210.811C82.9178 207.897 87.4863 204.4 91.5886 200.395L91.9077 200.018C92.9812 198.597 93.1843 194.216 89.7027 194.912C88.352 195.524 87.1383 196.403 86.1341 197.494C82.4966 200.881 78.3193 203.636 73.7744 205.647" stroke="#1A1A1A" stroke-width="0.86" stroke-linecap="round" stroke-linejoin="round"/>
<path d="M69.9463 216.788H70.1494C79.9559 217.716 87.5574 211.739 91.6773 207.794C93.0989 206.401 94.0563 205.241 94.5786 204.892C96.3484 202.745 94.9558 199.409 91.6773 200.453" stroke="#1A1A1A" stroke-width="0.86" stroke-linejoin="round"/>
<path d="M66.8996 201.73C66.8832 201.518 66.8832 201.305 66.8996 201.092C66.6076 200.02 66.5419 198.899 66.7068 197.8C66.8716 196.701 67.2633 195.649 67.857 194.709" stroke="#1A1A1A" stroke-width="0.86" stroke-linejoin="round"/>
<path d="M59.4727 197C59.4727 196.797 59.6758 196.478 59.8498 196.13C60.4369 194.549 61.4706 193.173 62.8252 192.168C64.1799 191.164 65.7971 190.575 67.4803 190.472" stroke="#1A1A1A" stroke-width="0.86" stroke-linejoin="round"/>
<path d="M60.8633 196.479L59.8479 196.014C58.02 195.202 56.1922 194.332 54.3934 193.461C50.4476 191.514 46.6208 189.334 42.9331 186.933C35.4767 181.972 30.8056 176.778 33.3297 172.426C36.8666 167.488 40.6529 162.734 44.6739 158.181C51.8008 149.66 59.5596 141.687 67.8846 134.332" stroke="#1A1A1A" stroke-width="0.86" stroke-linecap="round" stroke-linejoin="round"/>
<path d="M85.3799 459.483C88.6874 461.108 94.5481 464.706 97.9426 464.996C104.035 465.518 108.126 468.507 108.242 476.862" stroke="#1A1A1A" stroke-width="0.86" stroke-linecap="square" stroke-linejoin="round"/>
</svg>
