<svg width="193" height="433" viewBox="0 0 193 433" fill="none" xmlns="http://www.w3.org/2000/svg">
<path d="M154.903 144.359C158.705 143.5 161.777 142.77 163.756 142.198C158.366 135.949 156.205 132.824 152.69 128.371C152.69 128.371 153.393 133.215 154.877 144.307L154.903 144.359ZM157.507 163.783V164.017C161.335 190.732 165.813 220.259 166.126 226.014L63.9007 225.832C64.2392 207.449 71.712 155.972 76.0083 129.491C73.743 130.428 33.8789 145.114 29.14 140.297V140.167C25.8332 121.211 21.589 100.537 19.1675 84.9663L30.3638 80.0972C32.1083 85.5391 39.7114 105.458 44.4764 115.899C55.1584 106.066 66.8241 97.3582 79.2891 89.9135C87.1005 85.6953 99.859 86.2161 99.859 86.2161C100.022 85.0172 100.478 83.8769 101.187 82.896C101.895 81.9152 102.834 81.1238 103.921 80.5919L104.676 80.3055C113.399 77.91 129.386 79.6285 131.391 80.8523C133.07 82.1512 134.248 83.9912 134.724 86.0599C134.724 86.0599 155.997 89.1844 162.246 94.3139C162.246 94.3139 181.202 120.222 190.679 140.557C194.168 148.03 192.841 152.613 186.487 156.18C182.842 158.628 170.344 161.544 157.559 163.783H157.507ZM122.226 153.368C122.694 152.118 119.804 148.603 116.393 148.317H116.055L117.357 137.172C117.357 135.792 112.149 134.569 105.874 134.569C99.5987 134.569 94.4171 135.714 94.4171 137.172C94.4209 137.333 94.4756 137.488 94.5733 137.615L95.9794 149.983C95.9677 150.052 95.9677 150.122 95.9794 150.191C95.6039 150.167 95.2277 150.225 94.8765 150.36C94.5254 150.495 94.2078 150.705 93.9454 150.974C93.6831 151.244 93.4824 151.568 93.3571 151.922C93.2317 152.277 93.1847 152.655 93.2194 153.029C93.3494 153.906 93.6865 154.739 94.2027 155.459C94.719 156.179 95.3994 156.765 96.1877 157.169C95.842 157.093 95.4838 157.093 95.1382 157.17C94.7927 157.247 94.4682 157.399 94.1877 157.615C93.9071 157.831 93.6774 158.106 93.5146 158.42C93.3518 158.735 93.2599 159.081 93.2454 159.435C93.4116 160.225 93.7592 160.965 94.2608 161.598C94.7624 162.231 95.4043 162.738 96.1356 163.08C95.8168 162.975 95.4778 162.945 95.1455 162.994C94.8132 163.042 94.4968 163.167 94.2214 163.359C93.9459 163.551 93.719 163.805 93.5586 164.1C93.3983 164.395 93.3089 164.723 93.2975 165.059C93.2975 166.309 95.0681 167.871 98.2447 168.965V169.59L99.0258 176.594C101.2 177.229 103.452 177.562 105.718 177.583C108.186 177.532 110.641 177.2 113.034 176.594L113.763 169.98V169.564C117.041 168.966 120.251 168.041 123.345 166.804L123.788 166.439C121.471 164.122 119.804 156.623 122.278 153.368H122.226Z" fill="#1A1A1A"/>
<path d="M104.152 427.208V427.052H61.9968C60.773 420.126 65.9285 417.08 71.3705 416.455C82.697 415.127 96.2888 407.914 98.3978 407.472H121.624C121.624 411.482 121.624 413.929 121.624 414.424V414.736C118.97 415.548 116.253 416.131 113.5 416.481C108.058 417.184 102.876 420.23 104.152 427.208Z" fill="#1A1A1A"/>
<path d="M104.154 427.053V427.209C102.878 420.231 108.06 417.184 113.502 416.559C116.254 416.21 118.972 415.626 121.625 414.815C130.556 412.211 138.915 407.915 140.529 407.576H164.354C164.354 418.226 164.224 425.282 164.354 427.105L104.154 427.053Z" fill="#1A1A1A"/>
<path d="M115.401 33.3852C115.687 33.4053 115.953 33.5365 116.143 33.7507C116.333 33.9649 116.431 34.245 116.417 34.5309C116.39 34.8186 116.253 35.085 116.035 35.2743C115.817 35.4635 115.534 35.561 115.245 35.5464C114.959 35.5199 114.696 35.3822 114.51 35.163C114.325 34.9438 114.234 34.6607 114.256 34.3746C114.262 34.2331 114.297 34.0943 114.359 33.9668C114.421 33.8393 114.508 33.7258 114.615 33.6332C114.723 33.5405 114.848 33.4708 114.983 33.4281C115.118 33.3855 115.26 33.3709 115.401 33.3852Z" fill="#1A1A1A"/>
<path d="M101.109 32.9935C101.367 33.0483 101.597 33.1948 101.756 33.4059C101.915 33.6171 101.992 33.8786 101.973 34.1422C101.954 34.4057 101.84 34.6534 101.653 34.8396C101.465 35.0257 101.216 35.1376 100.953 35.1546C100.797 35.1647 100.641 35.1413 100.495 35.0859C100.348 35.0305 100.216 34.9445 100.106 34.8336C99.9959 34.7228 99.9109 34.5896 99.8567 34.4431C99.8024 34.2967 99.7802 34.1403 99.7914 33.9845C99.8027 33.8287 99.8472 33.6771 99.922 33.54C99.9967 33.4028 100.1 33.2833 100.225 33.1894C100.35 33.0955 100.493 33.0294 100.646 32.9956C100.798 32.9618 100.956 32.9611 101.109 32.9935Z" fill="#1A1A1A"/>
<path d="M76.0846 129.568C73.8193 130.506 33.9552 145.191 29.2163 140.374" stroke="#1A1A1A" stroke-width="0.86" stroke-miterlimit="10"/>
<path d="M129.59 24.6884C129.278 22.5012 128.939 19.9495 128.445 17.3457C127.836 13.0884 126.171 9.05117 123.602 5.60262C117.639 -1.06309 111.234 1.43655 105.792 7.03471C104.23 8.65249 102.802 10.394 101.521 12.2423C97.6281 17.8168 94.6321 23.9669 92.6426 30.4689C90.3512 39.478 103.058 59.7876 106.729 61.2457C107.169 61.4066 107.622 61.5286 108.083 61.6102C113.447 62.6257 120.269 57.8347 122.56 53.1219" stroke="#1A1A1A" stroke-width="0.86" stroke-miterlimit="10" stroke-linecap="round"/>
<path d="M131.441 80.9298C131.441 65.5153 132.274 51.5069 130.998 36.1445" stroke="#1A1A1A" stroke-width="0.86" stroke-miterlimit="10"/>
<path d="M108.218 60.9336C108.206 61.1417 108.206 61.3504 108.218 61.5585C106.864 67.6253 106.5 75.1243 104 80.5141" stroke="#1A1A1A" stroke-width="0.86" stroke-miterlimit="10"/>
<path d="M127.459 27.4221C128.102 26.4704 128.854 25.5966 129.698 24.8183C135.791 19.6107 139.827 31.1976 137.327 34.4784C136.538 35.3078 135.521 35.8842 134.403 36.1346C133.286 36.3849 132.12 36.2978 131.052 35.8844C130.562 35.7506 130.09 35.5583 129.646 35.3116" stroke="#1A1A1A" stroke-width="0.86" stroke-miterlimit="10" stroke-linecap="round"/>
<path d="M101.575 12.1899C100.117 12.0337 79.8851 7.94573 82.7753 2.26946C84.4418 -0.959249 95.1694 2.47776 105.845 6.90421C116 11.1224 126.155 16.2258 128.498 17.3194L128.862 17.4756" stroke="#1A1A1A" stroke-width="0.86" stroke-miterlimit="10"/>
<path d="M113.347 28.5688C114.41 28.2413 115.537 28.1721 116.633 28.3668C117.728 28.5615 118.762 29.0146 119.648 29.6884" stroke="#1A1A1A" stroke-width="0.86" stroke-miterlimit="10" stroke-linecap="round"/>
<path d="M130.764 29.5312C131.883 30.5348 133.323 31.1071 134.826 31.1456" stroke="#1A1A1A" stroke-width="0.86" stroke-miterlimit="10" stroke-linecap="round"/>
<path d="M99.209 29.0365C100.927 28.2553 104.807 28.4636 105.51 30.1561C106.63 32.8901 104.963 38.5663 104.26 41.8211C103.766 44.0343 102.984 48.3306 106.864 47.1849" stroke="#1A1A1A" stroke-width="0.86" stroke-miterlimit="10" stroke-linecap="round"/>
<path d="M112.2 52.6529C111.737 53.1525 111.168 53.5419 110.535 53.7925C109.901 54.0432 109.22 54.1486 108.54 54.1012C107.861 54.0537 107.201 53.8545 106.608 53.5183C106.016 53.182 105.507 52.7173 105.118 52.1582" stroke="#1A1A1A" stroke-width="0.86" stroke-miterlimit="10" stroke-linecap="round"/>
<path d="M122.252 344.46C122.018 372.216 121.679 396.171 121.575 407.55C121.575 411.56 121.575 414.007 121.575 414.502" stroke="#1A1A1A" stroke-width="0.86" stroke-miterlimit="10"/>
<path d="M148.157 234.138C147.844 245.282 155.473 252 165.003 254.734C167.736 255.511 170.549 255.974 173.387 256.114" stroke="#1A1A1A" stroke-width="0.86" stroke-miterlimit="10" stroke-linecap="round"/>
<path d="M164.247 427.053C164.247 425.23 164.247 418.174 164.247 407.524C164.533 375.107 165.184 309.153 164.898 254.734C164.898 245.048 164.768 235.726 164.638 227.029" stroke="#1A1A1A" stroke-width="0.86" stroke-linecap="round" stroke-linejoin="round"/>
<path d="M104.152 427.209L164.248 427.469C164.248 427.469 164.248 427.287 164.248 427.104" stroke="#1A1A1A" stroke-width="0.86" stroke-linecap="round" stroke-linejoin="round"/>
<path d="M107.745 247.286C109.176 280.095 114.081 312.659 122.378 344.434C127.872 366.566 134.252 387.735 140.397 407.263V407.524C138.782 407.862 130.424 412.184 121.493 414.762C118.84 415.574 116.122 416.157 113.369 416.507C107.927 417.132 102.746 420.178 104.022 427.156" stroke="#1A1A1A" stroke-width="0.86" stroke-linecap="round" stroke-linejoin="round"/>
<path d="M65.9549 226.145C67.5692 297.983 83.2962 359.719 98.3461 407.525C96.237 407.967 82.7233 415.18 71.3187 416.508C65.8768 417.133 60.7213 420.179 61.945 427.105H104.725" stroke="#1A1A1A" stroke-width="0.86" stroke-linecap="round" stroke-linejoin="round"/>
<path d="M97.3823 407.551H98.3457H121.181" stroke="#1A1A1A" stroke-width="0.86" stroke-miterlimit="10"/>
<path d="M140.503 407.551H140.529H164.302" stroke="#1A1A1A" stroke-width="0.86" stroke-miterlimit="10"/>
<path d="M164.248 427.47V432H104.152V427.209V427.079H164.248V427.105V427.47Z" stroke="#1A1A1A" stroke-width="0.86" stroke-linecap="round" stroke-linejoin="round"/>
<path d="M104.076 427.209V432H61.9985V427.157V427.079H104.076V427.209Z" stroke="#1A1A1A" stroke-width="0.86" stroke-linecap="round" stroke-linejoin="round"/>
<path d="M157.609 164.018C161.436 190.732 165.915 220.259 166.227 226.014L64.0024 225.832C64.3409 207.449 71.8138 155.972 76.1101 129.491C76.1101 128.736 76.3444 128.033 76.4486 127.33" stroke="#1A1A1A" stroke-width="0.86" stroke-linecap="round" stroke-linejoin="round"/>
<path d="M30.4923 79.6805C34.9187 73.2491 31.1953 62.4173 29.9455 58.1211C29.2164 55.5173 25.4409 55.7256 25.8315 59.423C26.1439 62.5996 26.5866 65.9585 25.2847 67.2344" stroke="#1A1A1A" stroke-width="0.86" stroke-miterlimit="10" stroke-linecap="round"/>
<path d="M25.1037 67.6504C25.1153 67.5814 25.1153 67.511 25.1037 67.4421C22.578 60.2816 14.376 47.2627 10.1318 49.8665C9.75185 50.0671 9.46238 50.4047 9.32215 50.8109C9.18192 51.217 9.20144 51.6613 9.37674 52.0536C9.86253 53.122 10.5627 54.0792 11.4337 54.8657C14.1765 57.2805 16.3165 60.3033 17.6828 63.6926" stroke="#1A1A1A" stroke-width="0.86" stroke-miterlimit="10" stroke-linecap="round"/>
<path d="M9.24508 52.1322C8.78164 51.5244 8.18226 51.0335 7.49498 50.6989C6.80771 50.3643 6.05163 50.1953 5.28731 50.2054C4.77318 50.1769 4.26607 50.335 3.85936 50.6508C3.45266 50.9666 3.17376 51.4188 3.07408 51.9239C2.65748 53.2258 3.56881 54.2674 4.48014 55.1266C7.82005 58.5036 10.7162 62.2922 13.0987 66.401" stroke="#1A1A1A" stroke-width="0.86" stroke-miterlimit="10" stroke-linecap="round"/>
<path d="M18.803 85.0705C15.1577 84.6539 12.3196 76.1916 11.3562 73.4055C9.72692 69.3442 7.36114 65.619 4.37803 62.4175C3.28443 61.1416 1.04517 59.0326 1.17536 57.2099C1.2615 56.8629 1.4182 56.5373 1.63568 56.2535C1.85317 55.9697 2.12678 55.7337 2.43947 55.5602C2.75215 55.3868 3.09719 55.2796 3.45312 55.2454C3.80904 55.2111 4.16821 55.2506 4.50823 55.3612" stroke="#1A1A1A" stroke-width="0.86" stroke-miterlimit="10" stroke-linecap="round"/>
<path d="M19.9966 72.4161C18.9551 68.9791 23.1472 67.547 25.2042 67.6251" stroke="#1A1A1A" stroke-width="0.86" stroke-miterlimit="10" stroke-linecap="round"/>
<path d="M43.6699 116.837L44.4771 116.108C55.1492 106.202 66.8153 97.4239 79.2898 89.9135C87.1012 85.6953 99.8598 86.2161 99.8598 86.2161C100.023 85.0172 100.479 83.8769 101.187 82.896C101.896 81.9152 102.835 81.1238 103.922 80.5919L104.677 80.3055C113.4 77.91 129.387 79.6285 131.392 80.8523C133.071 82.1512 134.248 83.9912 134.725 86.0599C134.725 86.0599 155.998 89.1844 162.247 94.3139C162.247 94.3139 181.202 120.222 190.68 140.557C194.169 148.03 192.841 152.613 186.488 156.18C182.66 158.367 170.292 161.388 157.508 163.523C142.432 166.127 126.809 167.949 124.205 166.569C123.973 166.447 123.762 166.289 123.58 166.1C121.419 163.861 119.753 156.388 122.226 153.082C122.724 152.43 123.418 151.955 124.205 151.728C135.115 148.577 146.65 145.973 154.852 144.072C158.653 143.213 161.726 142.484 163.705 141.911C158.315 135.662 156.154 132.538 152.639 128.085C152.639 128.085 153.342 132.928 154.826 144.02" stroke="#1A1A1A" stroke-width="0.86" stroke-linecap="round" stroke-linejoin="round"/>
<path d="M115.765 150.998C114.203 155.033 106.418 154.33 103.007 153.784C101.809 153.601 96.9139 152.195 96.0546 150.008C96.043 149.939 96.043 149.869 96.0546 149.8" stroke="#1A1A1A" stroke-width="0.86" stroke-miterlimit="10"/>
<path d="M96.0816 150.035C95.7061 150.011 95.3299 150.068 94.9788 150.203C94.6276 150.338 94.31 150.548 94.0477 150.818C93.7854 151.088 93.5846 151.411 93.4593 151.766C93.3339 152.12 93.287 152.498 93.3216 152.873C93.4516 153.749 93.7887 154.582 94.3049 155.302C94.8212 156.022 95.5017 156.608 96.2899 157.013C100.023 159.184 104.406 159.959 108.658 159.2" stroke="#1A1A1A" stroke-width="0.86" stroke-miterlimit="10" stroke-linecap="round"/>
<path d="M96.2362 157.04C95.8905 156.963 95.5323 156.963 95.1867 157.04C94.8412 157.117 94.5167 157.269 94.2362 157.485C93.9557 157.701 93.7259 157.976 93.5631 158.29C93.4003 158.605 93.3084 158.951 93.2939 159.305C93.4601 160.095 93.8078 160.836 94.3094 161.468C94.811 162.101 95.4528 162.608 96.1842 162.95C99.9271 164.876 104.186 165.56 108.344 164.903" stroke="#1A1A1A" stroke-width="0.86" stroke-miterlimit="10" stroke-linecap="round"/>
<path d="M96.1321 163.002C95.8132 162.896 95.4742 162.867 95.142 162.915C94.8097 162.964 94.4933 163.089 94.2178 163.281C93.9424 163.473 93.7154 163.727 93.5551 164.022C93.3947 164.317 93.3053 164.645 93.2939 164.981C93.2939 166.23 95.0645 167.793 98.2412 168.886C103.232 170.362 108.513 170.568 113.604 169.485C116.882 168.887 120.092 167.963 123.185 166.725" stroke="#1A1A1A" stroke-width="0.86" stroke-miterlimit="10" stroke-linecap="round"/>
<path d="M122.226 153.316C122.695 152.066 119.805 148.551 116.394 148.265" stroke="#1A1A1A" stroke-width="0.86" stroke-miterlimit="10" stroke-linecap="round"/>
<path d="M94.519 137.016L94.5711 137.458L95.9772 149.826L96.0032 149.983" stroke="#1A1A1A" stroke-width="0.86" stroke-linecap="round" stroke-linejoin="round"/>
<path d="M117.383 137.016L117.357 137.094L116.055 148.238L115.743 151.024" stroke="#1A1A1A" stroke-width="0.86" stroke-linecap="round" stroke-linejoin="round"/>
<path d="M94.5693 137.458C94.4715 137.33 94.4168 137.175 94.4131 137.015C94.4131 135.635 99.6207 134.411 105.87 134.411C112.119 134.411 117.353 135.557 117.353 137.015C117.196 138.369 112.145 139.462 105.896 139.462C100.193 139.541 95.4806 138.629 94.5693 137.458Z" stroke="#1A1A1A" stroke-width="0.86" stroke-linecap="round" stroke-linejoin="round"/>
<path d="M113.685 169.902L112.956 176.516C110.562 177.123 108.107 177.455 105.639 177.505C103.373 177.485 101.122 177.152 98.9471 176.516L98.166 169.512" stroke="#1A1A1A" stroke-width="0.86" stroke-linecap="round" stroke-linejoin="round"/>
<path d="M29.0077 140.245C25.7009 121.29 21.4567 100.616 19.0352 85.0449L30.2315 80.1758C31.976 85.6177 39.5791 105.537 44.344 115.978" stroke="#1A1A1A" stroke-width="0.86" stroke-linecap="round" stroke-linejoin="round"/>
<path d="M108.917 131.026C109.578 130.339 110.088 129.52 110.411 128.623C110.734 127.725 110.864 126.77 110.792 125.819C110.159 124.338 109.41 122.911 108.552 121.549C106.912 117.799 108.552 115.065 111.156 112.487" stroke="white" stroke-width="0.86" stroke-miterlimit="10" stroke-linecap="round"/>
<path d="M102.332 131.026C102.994 130.339 103.503 129.52 103.826 128.623C104.149 127.725 104.279 126.77 104.207 125.819C103.564 124.343 102.815 122.916 101.967 121.549C100.301 117.799 101.967 115.065 104.571 112.487" stroke="white" stroke-width="0.86" stroke-miterlimit="10" stroke-linecap="round"/>
<path d="M139.591 407.551C135.972 408.957 123.968 415.05 113.553 416.274C108.085 416.898 104.101 418.877 104.206 427.652" stroke="white" stroke-width="0.86" stroke-linejoin="round"/>
<path d="M120.716 152.483C130.454 147.275 146.754 144.385 155.138 142.38" stroke="white" stroke-width="0.86" stroke-linecap="square" stroke-linejoin="round"/>
<path d="M159.408 165.371L157.377 165.736C142.015 168.339 124.986 168.339 120.924 166.335" stroke="white" stroke-width="0.86" stroke-linecap="round" stroke-linejoin="round"/>
</svg>
