<svg width="237" height="484" viewBox="0 0 237 484" fill="none" xmlns="http://www.w3.org/2000/svg">
<path d="M140.573 149.432C145.777 184.146 152.812 235.664 153.132 252.469H151.679L41.0251 252.672H38.99C39.6005 241.566 40.5018 240.548 41.2577 224.064L67.2203 225.372C53.3523 223.57 33.8731 214.295 19.6562 202.375C9.27696 193.653 1.6597 183.594 1.04916 173.999C0.525841 166.033 4.27632 159.782 7.73606 152.659C12.068 143.676 37.2165 110.939 43.351 105.88C50.4449 100.066 74.1107 96.5768 74.1107 96.5768C75.0701 94.1928 75.5644 92.0414 77.8902 90.6168C78.0378 90.533 78.1937 90.4648 78.3554 90.4133C88.0118 88.2638 98.0073 88.1252 107.72 90.0063C108.15 90.1202 108.561 90.2965 108.941 90.5296C110.06 91.1399 111.02 92.0055 111.742 93.0562C112.465 94.1069 112.929 95.313 113.098 96.5768C113.098 96.5768 127.431 96.0245 136.066 100.734C148.405 108.084 160.001 116.614 170.693 126.203C171.091 114.558 170.663 102.899 169.413 91.3146L183.95 90.2388H184.357C189.619 108.148 201.22 150.741 194.387 157.515C189.241 162.777 144.963 150.944 140.573 149.432ZM54.5733 148.24C53.1778 149.694 51.666 151.148 50.4449 152.659C44.3116 159.255 38.5833 166.217 33.2916 173.505C27.7967 182.721 67.3657 206.881 76.9017 209.178C76.9017 209.178 76.9017 209.847 76.9017 210.923C76.6982 214.964 75.9423 224.703 73.3257 225.459C75.0701 227.756 87.1065 236.158 91.7001 236.914C98.4161 238.077 106.673 231.448 111.674 227.378C114.556 227.529 117.381 226.53 119.529 224.6C121.676 222.671 122.971 219.969 123.128 217.086L125.832 162.661C125.967 159.775 124.954 156.954 123.014 154.813C121.075 152.672 118.367 151.385 115.482 151.235L54.5733 148.24Z" fill="#1A1A1A"/>
<path d="M145.629 465.635C151.735 466.333 157.491 469.734 156.067 477.497V477.439H109.055C110.363 469.792 104.636 466.42 98.5594 465.809C95.4959 465.416 92.4712 464.764 89.5176 463.861V463.483C89.5176 462.96 89.5176 460.227 89.5176 455.721H115.451C117.806 456.099 132.953 464.123 145.629 465.635Z" fill="#1A1A1A"/>
<path d="M98.5595 465.634C104.636 466.332 110.363 469.704 109.055 477.263V477.438H42.1862C42.1862 475.403 42.1862 467.553 42.0117 455.633H68.672C70.4455 456.011 79.8072 460.837 89.7794 463.715C92.6485 464.594 95.5852 465.236 98.5595 465.634Z" fill="#1A1A1A"/>
<path d="M209.797 13.0186H164.006C161.053 13.0186 158.221 14.1917 156.132 16.28C154.044 18.3682 152.871 21.2005 152.871 24.1537V25.3166C152.871 28.2698 154.044 31.1021 156.132 33.1903C158.221 35.2786 161.053 36.4517 164.006 36.4517H209.797C211.259 36.4517 212.707 36.1637 214.058 35.6041C215.409 35.0445 216.637 34.2243 217.671 33.1903C218.705 32.1563 219.525 30.9288 220.084 29.5778C220.644 28.2269 220.932 26.7789 220.932 25.3166V24.1537C220.932 22.6914 220.644 21.2434 220.084 19.8925C219.525 18.5415 218.705 17.3139 217.671 16.28C216.637 15.246 215.409 14.4258 214.058 13.8662C212.707 13.3066 211.259 13.0186 209.797 13.0186ZM208.023 32.4396C206.494 32.4396 204.999 31.986 203.727 31.1363C202.455 30.2865 201.464 29.0787 200.879 27.6656C200.293 26.2524 200.14 24.6975 200.438 23.1973C200.737 21.6972 201.473 20.3192 202.555 19.2376C203.636 18.1561 205.014 17.4195 206.515 17.1211C208.015 16.8227 209.57 16.9759 210.983 17.5612C212.396 18.1466 213.604 19.1378 214.454 20.4096C215.303 21.6813 215.757 23.1765 215.757 24.7061C215.749 26.7548 214.932 28.7174 213.483 30.166C212.035 31.6147 210.072 32.4319 208.023 32.4396Z" fill="#1A1A1A" stroke="#1A1A1A" stroke-width="0.86" stroke-linecap="round" stroke-linejoin="round"/>
<path d="M113.447 37.8491C113.428 38.1435 113.303 38.4211 113.095 38.6305C112.887 38.8399 112.611 38.967 112.316 38.9883C112.022 39.0096 111.73 38.9236 111.494 38.7462C111.259 38.5689 111.095 38.3122 111.034 38.0235C111.01 37.7042 111.112 37.388 111.318 37.1433C111.525 36.8986 111.82 36.7448 112.139 36.7152C112.299 36.7034 112.46 36.7233 112.613 36.7739C112.766 36.8246 112.907 36.9049 113.028 37.0102C113.15 37.1156 113.25 37.244 113.321 37.3879C113.393 37.5319 113.436 37.6886 113.447 37.8491Z" fill="#1A1A1A"/>
<path d="M97.4845 38.2538C97.5008 38.5761 97.392 38.8922 97.1807 39.136C96.9693 39.3798 96.6719 39.5325 96.3506 39.5621C96.0314 39.5781 95.7187 39.4683 95.4795 39.2564C95.2403 39.0444 95.0938 38.7471 95.0714 38.4282C95.0554 38.2708 95.0717 38.1118 95.1193 37.9609C95.1669 37.81 95.2448 37.6704 95.3482 37.5507C95.4517 37.4309 95.5784 37.3335 95.7208 37.2645C95.8631 37.1954 96.0181 37.1561 96.1762 37.149C96.4956 37.1248 96.8117 37.227 97.0564 37.4337C97.3012 37.6403 97.4549 37.9349 97.4845 38.2538Z" fill="#1A1A1A"/>
<path d="M68.0626 135.303C63.3068 139.337 58.8017 143.657 54.5725 148.24C53.177 149.694 51.6652 151.148 50.4441 152.659C44.3107 159.255 38.5825 166.217 33.2907 173.505C27.7959 182.721 67.3648 206.881 76.9009 209.178C76.9009 209.178 76.9009 209.847 76.9009 210.923C76.6974 214.964 75.9415 224.703 73.3249 225.459H73.0051C71.1204 225.501 69.2352 225.404 67.3648 225.169C53.4968 223.366 34.0176 214.092 19.8007 202.172C9.42147 193.449 1.80424 183.39 1.19369 173.796C0.670372 165.83 4.42084 159.579 7.88058 152.456C12.2125 143.472 37.361 110.736 43.4955 105.677C50.4441 100.066 74.1098 96.5769 74.1098 96.5769C75.0693 94.1928 75.5635 92.0414 77.8894 90.6168C78.037 90.533 78.1928 90.4648 78.3546 90.4133C88.0109 88.2638 98.0065 88.1252 107.719 90.0063C108.149 90.1202 108.56 90.2965 108.94 90.5296C110.059 91.1399 111.019 92.0055 111.742 93.0562C112.464 94.1069 112.928 95.313 113.097 96.5769C113.097 96.5769 127.43 96.0245 136.065 100.734C148.404 108.084 160 116.614 170.692 126.203C172.436 127.714 174.151 129.11 175.838 130.796" stroke="#1A1A1A" stroke-width="0.86" stroke-linecap="round" stroke-linejoin="round"/>
<path d="M111.674 227.405C106.674 231.475 98.4167 238.104 91.7007 236.941C87.1071 236.185 75.0707 227.783 73.3263 225.486C73.2363 225.368 73.1584 225.242 73.0938 225.108" stroke="#1A1A1A" stroke-width="0.86" stroke-miterlimit="10"/>
<path d="M41.2589 224.062C40.503 240.547 39.6018 241.507 38.9912 252.671H41.0264L151.68 252.467H153.133C152.814 235.663 145.778 184.145 140.574 149.431C139.236 140.564 138.044 132.801 137.085 126.986" stroke="#1A1A1A" stroke-width="0.86" stroke-linecap="round" stroke-linejoin="round"/>
<path d="M140.311 149.344H140.572C144.962 150.856 189.241 162.689 194.503 157.456C201.336 150.681 189.735 108.031 184.473 90.1797H184.182L169.646 91.2554C170.895 102.84 171.323 114.499 170.925 126.144" stroke="#1A1A1A" stroke-width="0.86" stroke-miterlimit="10"/>
<path d="M110.947 227.406H110.627C105.307 227.667 95.7996 227.696 92.9504 225.196C91.206 223.655 91.1188 217.23 94.0261 215.98C96.0322 215.107 100.073 213.741 101.498 212.898C102.059 212.623 102.517 212.175 102.804 211.62C103.091 211.065 103.191 210.432 103.09 209.815C102.989 209.199 102.692 208.631 102.243 208.197C101.794 207.762 101.216 207.484 100.597 207.403C98.3432 207.2 96.0761 207.2 93.8226 207.403C89.4616 207.926 82.6003 212.2 76.8438 210.921" stroke="#1A1A1A" stroke-width="0.86" stroke-miterlimit="10"/>
<path d="M80.333 27.469C80.6819 25.0268 81.0599 22.1486 81.6122 19.2412C82.2681 14.4368 84.1283 9.87625 87.0199 5.98376C93.6777 -1.45904 100.83 1.33201 106.906 7.58279C108.65 9.38918 110.244 11.3338 111.674 13.3975C116.021 19.6219 119.367 26.4889 121.588 33.7489C124.147 43.8373 109.959 66.4855 105.859 68.1137C105.371 68.3067 104.864 68.4527 104.348 68.5498C98.3585 69.6546 90.7413 64.305 88.1828 59.0428" stroke="#1A1A1A" stroke-width="0.86" stroke-miterlimit="10" stroke-linecap="round"/>
<path d="M78.2669 90.2395C78.2669 72.9989 77.3365 57.3865 78.7902 40.2041" stroke="#1A1A1A" stroke-width="0.86" stroke-miterlimit="10"/>
<path d="M104.202 67.9404C104.265 68.1698 104.313 68.4028 104.348 68.6382C105.83 75.6158 106.237 84.2506 108.97 90.4723" stroke="#1A1A1A" stroke-width="0.86" stroke-miterlimit="10"/>
<path d="M82.7169 30.4914C82.0075 29.4221 81.1676 28.4455 80.2166 27.584C73.4134 21.7694 68.907 34.707 71.7272 38.3994C72.6092 39.3148 73.7419 39.9494 74.9833 40.2235C76.2246 40.4977 77.5192 40.3991 78.7048 39.9403C79.2636 39.7981 79.8012 39.5831 80.3038 39.3006" stroke="#1A1A1A" stroke-width="0.86" stroke-miterlimit="10" stroke-linecap="round"/>
<path d="M111.497 13.4833C113.125 13.3089 135.715 8.74437 132.488 2.43544C130.628 -1.19874 118.678 2.63895 106.729 7.58143C95.3906 12.2913 84.052 17.9897 81.4354 19.2108L81.0283 19.4143" stroke="#1A1A1A" stroke-width="0.86" stroke-miterlimit="10"/>
<path d="M98.4733 31.7707C97.2853 31.4075 96.028 31.3315 94.8049 31.5488C93.5817 31.7661 92.4277 32.2707 91.4375 33.0209" stroke="#1A1A1A" stroke-width="0.86" stroke-miterlimit="10" stroke-linecap="round"/>
<path d="M78.9368 32.8477C77.6956 33.9817 76.0825 34.6228 74.4014 34.6502" stroke="#1A1A1A" stroke-width="0.86" stroke-miterlimit="10" stroke-linecap="round"/>
<path d="M114.406 32.2076C112.516 31.3354 108.155 31.5971 107.37 33.4868C106.12 36.3942 107.981 42.8485 108.795 46.4827C109.318 48.9539 110.191 53.7801 105.888 52.4718" stroke="#1A1A1A" stroke-width="0.86" stroke-miterlimit="10" stroke-linecap="round"/>
<path d="M99.8701 58.7821C100.388 59.3366 101.022 59.769 101.728 60.0481C102.433 60.3272 103.191 60.446 103.948 60.3959C104.705 60.3458 105.441 60.1281 106.104 59.7585C106.766 59.3889 107.338 58.8766 107.778 58.2588" stroke="#1A1A1A" stroke-width="0.86" stroke-miterlimit="10" stroke-linecap="round"/>
<path d="M88.791 385.102C89.0817 416.123 89.4597 442.87 89.576 455.546C89.576 460.053 89.576 462.786 89.576 463.309" stroke="#1A1A1A" stroke-width="0.86" stroke-miterlimit="10"/>
<path d="M59.8948 261.945C60.2437 274.505 51.5507 282.035 40.7645 285.03C37.8137 285.843 34.7806 286.321 31.7227 286.454" stroke="#1A1A1A" stroke-width="0.86" stroke-miterlimit="10" stroke-linecap="round"/>
<path d="M108.883 477.437L42.0138 477.757C42.0138 477.757 42.0138 477.524 42.0138 477.292C42.0138 475.257 42.0138 467.407 41.8394 455.487C41.4615 419.319 40.5892 345.764 40.8509 284.971C40.8509 273.632 40.8509 262.73 41.1126 252.612" stroke="#1A1A1A" stroke-width="0.86" stroke-linecap="round" stroke-linejoin="round"/>
<path d="M105.017 276.627C103.421 313.251 97.9438 349.602 88.6774 385.071C82.5429 409.812 75.4199 433.42 68.5586 455.254V455.545C70.3321 455.923 79.6937 460.749 89.6659 463.627C92.6195 464.53 95.6442 465.182 98.7077 465.575C104.784 466.273 110.512 469.645 109.203 477.205C109.192 477.252 109.192 477.302 109.203 477.35" stroke="#1A1A1A" stroke-width="0.86" stroke-linecap="round" stroke-linejoin="round"/>
<path d="M151.679 253.02C149.876 333.233 132.316 402.166 115.511 455.545C117.866 456.039 132.955 464.064 145.689 465.575C151.795 466.273 157.551 469.675 156.127 477.437H108.592" stroke="#1A1A1A" stroke-width="0.86" stroke-linecap="round" stroke-linejoin="round"/>
<path d="M116.588 455.545H115.512H90.0146" stroke="#1A1A1A" stroke-width="0.86" stroke-miterlimit="10"/>
<path d="M68.4403 455.545H68.4112H41.8672" stroke="#1A1A1A" stroke-width="0.86" stroke-miterlimit="10"/>
<path d="M41.9237 477.351H41.7783V482.875H108.88V477.525V477.351H41.9237Z" stroke="#1A1A1A" stroke-width="0.86" stroke-linecap="round" stroke-linejoin="round"/>
<path d="M108.998 477.525V482.875H155.952V477.525V477.351H109.056H108.998V477.525Z" stroke="#1A1A1A" stroke-width="0.86" stroke-linecap="round" stroke-linejoin="round"/>
<path d="M67.2475 225.284L41.2849 223.975L29.4811 223.394C26.5963 223.243 23.8883 221.957 21.949 219.816C20.0096 217.675 18.9965 214.854 19.131 211.968L19.6253 202.345" stroke="#1A1A1A" stroke-width="0.86" stroke-miterlimit="10"/>
<path d="M54.1357 148.209H54.5718L115.335 151.116C118.22 151.267 120.928 152.553 122.867 154.694C124.807 156.835 125.82 159.657 125.685 162.542L123.127 217.084C123.053 218.529 122.692 219.946 122.065 221.25C121.438 222.555 120.558 223.721 119.476 224.682C118.393 225.643 117.13 226.378 115.76 226.846C114.391 227.313 112.942 227.503 111.498 227.405H110.567H109.84" stroke="#1A1A1A" stroke-width="0.86" stroke-miterlimit="10"/>
<path d="M50.4443 152.688L111.499 155.595C114.062 155.715 116.473 156.849 118.201 158.746C119.929 160.643 120.833 163.149 120.715 165.712L118.36 213.858L117.778 225.168" stroke="#1A1A1A" stroke-width="0.86" stroke-miterlimit="10"/>
<path d="M169.181 91.3133C164.093 90.7027 155.574 77.9104 164.616 72.8807C165.782 72.2659 167.023 71.8065 168.309 71.5143C169.152 71.3398 170.227 71.0491 171.216 70.8746C173.629 70.4676 176.304 70.5258 177.205 72.7644C177.512 73.3092 177.592 73.9528 177.429 74.5565C177.266 75.1601 176.872 75.6755 176.333 75.9916C175.142 76.537 173.894 76.9466 172.611 77.2126C171.041 77.5615 169.704 78.7535 170.169 78.8408C171.098 79.104 171.951 79.5839 172.659 80.2409C173.367 80.8979 173.908 81.7133 174.24 82.6203C174.553 83.2643 174.806 83.9358 174.995 84.6264" stroke="#1A1A1A" stroke-width="0.86" stroke-miterlimit="10" stroke-linecap="round"/>
<path d="M164.383 72.5028C163.162 68.9267 158.394 47.9648 162.581 46.9472C166.767 45.9296 167.349 54.4191 169.733 64.3913C170.198 66.3392 170.692 68.3743 171.303 70.4095" stroke="#1A1A1A" stroke-width="0.86" stroke-miterlimit="10" stroke-linecap="round"/>
<path d="M169.647 64.5952C169.327 60.7575 175.462 60.3504 176.566 63.1706C177.012 64.1981 177.382 65.2574 177.671 66.3396C179.241 71.66 179.416 77.6201 177.846 80.6437C177.612 81.2622 177.187 81.7901 176.633 82.1508C176.079 82.5115 175.424 82.6863 174.764 82.6497" stroke="#1A1A1A" stroke-width="0.86" stroke-miterlimit="10" stroke-linecap="round"/>
<path d="M177.816 66.251C177.438 62.2098 182.701 61.0178 183.631 64.652C185.666 72.6181 185.317 77.9094 183.951 80.3807C183.73 80.7911 183.435 81.156 183.079 81.4564C182.361 81.9491 181.478 82.137 180.622 81.9789C179.766 81.8208 179.008 81.3297 178.514 80.6133" stroke="#1A1A1A" stroke-width="0.86" stroke-miterlimit="10" stroke-linecap="round"/>
<path d="M184.182 90.2091C185.039 87.0093 185.039 83.6402 184.182 80.4404" stroke="#1A1A1A" stroke-width="0.86" stroke-miterlimit="10" stroke-linecap="round"/>
<path d="M38.2931 181.15C49.9225 193.652 71.2624 206.793 78.211 208.479C78.211 208.479 77.833 226.97 73.7918 227.145C62.1624 227.61 43.6136 221.068 27.7686 211.096" stroke="white" stroke-width="0.86" stroke-linecap="round" stroke-linejoin="round"/>
<path d="M69.2861 455.777C73.3564 457.318 86.7302 464.15 98.3596 465.517C104.465 466.215 108.913 468.424 108.826 478.193" stroke="white" stroke-width="0.86" stroke-linejoin="round"/>
<path d="M220.176 9.9382L225.671 2.78613" stroke="#1A1A1A" stroke-width="0.86" stroke-linecap="round" stroke-linejoin="round"/>
<path d="M226.105 16.6542L233.577 12.7002" stroke="#1A1A1A" stroke-width="0.86" stroke-linecap="round" stroke-linejoin="round"/>
<path d="M227.764 24.2422H236.253" stroke="#1A1A1A" stroke-width="0.86" stroke-linecap="round" stroke-linejoin="round"/>
</svg>
