<svg width="286" height="483" viewBox="0 0 286 483" fill="none" xmlns="http://www.w3.org/2000/svg">
<path d="M169.994 67.2051C169.962 68.0501 170.266 68.8735 170.841 69.494C171.415 70.1146 172.213 70.4814 173.058 70.5139C173.903 70.5465 174.726 70.2419 175.347 69.6673C175.967 69.0928 176.334 68.2952 176.367 67.4502C176.407 67.1611 176.407 66.8678 176.367 66.5787C176.367 64.1549 176.231 61.8673 176.231 59.7158C178.376 60.03 180.308 61.1835 181.603 62.9225C182.898 64.6616 183.449 66.8437 183.134 68.9889C182.82 71.134 181.667 73.0665 179.928 74.3612C178.189 75.6559 176.007 76.2068 173.861 75.8926C173.553 75.9198 173.243 75.9198 172.935 75.8926C170.679 75.8005 168.551 74.8168 167.019 73.1573C165.488 71.4978 164.677 69.2983 164.765 67.0417C164.861 65.5833 165.346 64.1774 166.17 62.9703C166.994 61.7632 168.126 60.7992 169.45 60.1788C169.461 62.5265 169.597 64.8719 169.858 67.2051H169.994Z" fill="#1A1A1A"/>
<path d="M200.467 114.21C201.92 115.34 203.086 116.795 203.872 118.459H222.282C224.638 118.435 226.982 118.105 229.253 117.478L248.753 112.031V111.786L219.667 84.0898L219.858 83.8719L228.028 74.9121L228.191 74.7214C228.191 74.7214 285.654 105.332 285.137 116.852C284.565 129.407 235.081 154.053 235.081 154.053C235.081 154.053 236.361 261.217 236.498 263.614H235.517H131.512H131.321C131.675 246.538 135.461 189.212 138.484 153.318C122.819 159.567 106.849 165.02 90.6343 169.658C87.9654 170.693 69.61 151.084 55.9932 130.142V129.842C56.9354 129.585 57.7664 129.023 58.3573 128.245C58.9481 127.467 59.2658 126.516 59.2612 125.539V116.062H59.4791C60.2907 115.753 61.0595 115.341 61.7667 114.837C68.1938 122.38 91.3969 143.459 94.1202 142.506C102.29 139.429 119.093 130.115 137.694 121.046C143.44 118.322 157.711 118.595 168.495 118.785C168.904 116.967 169.923 115.343 171.382 114.183L171.899 113.965C180.88 111.967 190.172 111.809 199.215 113.502C199.666 113.674 200.088 113.912 200.467 114.21Z" fill="#1A1A1A"/>
<path d="M191.289 64.7268C191.325 65.0124 191.253 65.3011 191.085 65.5354C190.918 65.7698 190.669 65.9324 190.387 65.9908C190.105 66.0492 189.811 65.9992 189.564 65.8507C189.318 65.7022 189.136 65.4662 189.056 65.1897C189.02 64.9041 189.093 64.6153 189.26 64.381C189.427 64.1467 189.677 63.9841 189.959 63.9257C190.24 63.8672 190.534 63.9172 190.781 64.0657C191.027 64.2142 191.209 64.4503 191.289 64.7268Z" fill="#1A1A1A"/>
<path d="M205.124 61.7586C205.182 62.0541 205.124 62.3604 204.961 62.6139C204.799 62.8675 204.545 63.0488 204.253 63.1203C204.032 63.1689 203.802 63.1509 203.591 63.0685C203.38 62.9862 203.198 62.8432 203.069 62.6576C202.94 62.472 202.868 62.2522 202.864 62.0259C202.859 61.7997 202.922 61.5772 203.044 61.3866C203.166 61.196 203.341 61.0459 203.549 60.9552C203.756 60.8646 203.986 60.8374 204.208 60.8772C204.431 60.917 204.637 61.022 204.8 61.1789C204.963 61.3358 205.076 61.5375 205.124 61.7586Z" fill="#1A1A1A"/>
<path d="M209.483 457.435C210.6 457.762 211.717 458.035 212.806 458.28C211.717 458.062 210.6 457.762 209.483 457.435Z" fill="#1A1A1A"/>
<path d="M120.892 426.062H57.8457V426.09H120.892V426.062Z" fill="white"/>
<path d="M70.2636 445.943C70.1107 445.845 69.9789 445.718 69.876 445.568C69.7731 445.418 69.7012 445.249 69.6645 445.072C69.5919 444.7 69.6683 444.315 69.8771 443.999C70.086 443.683 70.4106 443.462 70.781 443.383C70.9637 443.339 71.1533 443.333 71.3385 443.364C71.5237 443.396 71.7005 443.465 71.8584 443.567C72.0162 443.668 72.1517 443.801 72.2568 443.957C72.3618 444.113 72.4342 444.288 72.4695 444.472C72.5348 444.753 72.5129 445.047 72.4068 445.315C72.3007 445.583 72.1154 445.812 71.8757 445.971C71.636 446.131 71.3533 446.214 71.0652 446.209C70.7772 446.204 70.4975 446.111 70.2636 445.943Z" fill="#1A1A1A"/>
<path d="M36.738 446.351C36.5783 446.466 36.397 446.547 36.205 446.589C36.013 446.631 35.8144 446.634 35.6214 446.596C35.2489 446.511 34.924 446.285 34.7156 445.965C34.5072 445.644 34.4316 445.256 34.5048 444.881C34.5897 444.508 34.8163 444.183 35.1365 443.975C35.4567 443.766 35.8455 443.691 36.2205 443.764C36.4068 443.803 36.5835 443.878 36.7405 443.986C36.8975 444.093 37.0318 444.23 37.1356 444.39C37.2394 444.549 37.3106 444.728 37.3452 444.915C37.3797 445.102 37.377 445.294 37.3371 445.48C37.2574 445.837 37.0427 446.149 36.738 446.351Z" fill="#1A1A1A"/>
<path d="M108.201 452.043C108.005 451.835 107.769 451.669 107.507 451.557C107.244 451.444 106.961 451.388 106.676 451.39C106.32 451.39 105.969 451.481 105.658 451.654C105.347 451.828 105.085 452.077 104.897 452.38C104.709 452.682 104.601 453.027 104.584 453.383C104.566 453.739 104.639 454.093 104.797 454.413C104.96 454.773 105.225 455.078 105.558 455.291C105.892 455.503 106.28 455.615 106.676 455.611C107.07 455.608 107.455 455.494 107.788 455.282C108.12 455.07 108.386 454.769 108.555 454.413C108.697 454.125 108.772 453.808 108.773 453.487C108.771 452.951 108.567 452.435 108.201 452.043Z" fill="#1A1A1A"/>
<path d="M128.599 481.755V426.062H120.892H57.8458H19.4736V481.755H128.599Z" stroke="#1A1A1A" stroke-width="0.86" stroke-miterlimit="10" stroke-linecap="round"/>
<path d="M172.5 287.007C172.772 294.714 173.263 302.394 174.025 310.02C179.118 362.581 194.968 413.507 209.429 457.081V457.354" stroke="#1A1A1A" stroke-width="0.86" stroke-miterlimit="10" stroke-linecap="round"/>
<path d="M235.517 264.431C235.654 275.324 235.763 286.789 235.817 298.5C236.117 369.062 234.782 448.285 234.891 456.455V457.054" stroke="#1A1A1A" stroke-width="0.86" stroke-miterlimit="10"/>
<path d="M234.836 456.373L233.774 456.7L233.257 456.89L232.249 457.19L231.732 457.353L230.887 457.571H230.615C226.573 458.726 222.368 459.205 218.169 458.987H217.489L216.154 458.851H215.473C214.556 458.743 213.647 458.579 212.75 458.361C211.661 458.143 210.544 457.844 209.427 457.517H209.101" stroke="#1A1A1A" stroke-width="0.86" stroke-miterlimit="10"/>
<path d="M95.5352 401.252H95.3174" stroke="#1A1A1A" stroke-width="0.86" stroke-miterlimit="10"/>
<path d="M121 400.218H120.728L119.176 400.735L118.195 401.035L115.935 401.634H115.662H115.308L113.511 402.015L112.721 402.151H112.285H111.85L111.005 402.288L109.371 402.451H108.173H107.737C106.431 402.52 105.122 402.52 103.816 402.451L101.828 402.233H101.147H100.493L99.1861 401.961L97.8517 401.661L97.198 401.498L95.8908 401.116H95.7002" stroke="#1A1A1A" stroke-width="0.86" stroke-miterlimit="10"/>
<path d="M173.454 310.074C154.744 309.72 133.257 316.147 121.083 326.414C114.738 331.861 117.38 382.298 120.729 400.19C120.716 400.435 120.716 400.681 120.729 400.926" stroke="#1A1A1A" stroke-width="0.86" stroke-miterlimit="10" stroke-linecap="round"/>
<path d="M131.594 263.723H131.403C115.063 270.531 81.3205 287.443 77.8618 297.111C70.5087 317.836 81.9468 366.339 95.836 401.198C95.883 401.359 95.9469 401.514 96.0266 401.661" stroke="#1A1A1A" stroke-width="0.86" stroke-miterlimit="10"/>
<path d="M59.4797 116.062C60.2913 115.752 61.0601 115.341 61.7673 114.836C68.5485 109.825 67.214 96.5353 63.4286 92.7226C62.2057 91.5699 60.785 90.6474 59.2346 89.9992C57.3836 89.1009 55.2948 88.8148 53.2704 89.1822C52.9271 89.2819 52.6111 89.459 52.3467 89.6997C52.0824 89.9405 51.8767 90.2386 51.7453 90.5711C51.6565 91.1629 51.7228 91.7675 51.9376 92.326C52.1524 92.8845 52.5084 93.3777 52.9708 93.7575C54.8518 95.5974 56.967 97.1815 59.2618 98.4689L59.9426 98.8501" stroke="#1A1A1A" stroke-width="0.86" stroke-miterlimit="10"/>
<path d="M41.015 100.866C38.918 97.6796 39.4354 95.2286 41.1784 93.7308C42.8246 92.5763 44.8019 91.9891 46.8115 92.0579C48.821 92.1267 50.7535 92.8477 52.3169 94.112C53.5697 95.1197 55.2309 97.7613 51.3638 98.7962" stroke="#1A1A1A" stroke-width="0.86" stroke-miterlimit="10"/>
<path d="M41.0705 93.5942C37.8842 87.6845 42.6773 85.2062 47.5794 86.1322C49.6169 86.5037 51.5063 87.4484 53.0261 88.8555" stroke="#1A1A1A" stroke-width="0.86" stroke-miterlimit="10"/>
<path d="M47.3341 115.109C45.9622 114.679 44.6921 113.974 43.6012 113.038C42.5103 112.102 41.6214 110.953 40.9886 109.662C40.3186 108.355 40.0037 106.894 40.0754 105.427C40.1471 103.96 40.6029 102.537 41.3971 101.301C41.6953 100.847 42.0423 100.427 42.432 100.049C43.5496 98.9535 44.9905 98.2481 46.5409 98.0371C48.0913 97.8261 49.6683 98.1209 51.0378 98.8776C51.5441 99.1589 52.0035 99.5172 52.3995 99.9397C54.0608 101.737 52.6719 104.869 50.9561 104.025C49.9711 103.597 48.893 103.428 47.8243 103.535C47.4527 103.541 47.0973 103.688 46.8295 103.945C46.5618 104.203 46.4015 104.552 46.3809 104.923C46.3809 105.332 47.1979 105.795 47.4702 105.931" stroke="#1A1A1A" stroke-width="0.86" stroke-miterlimit="10"/>
<path d="M59.2351 90.2175V82.347C59.2387 81.7595 59.1257 81.1771 58.9025 80.6336C58.6793 80.0901 58.3505 79.5963 57.935 79.1808C57.5196 78.7653 57.0258 78.4365 56.4822 78.2133C55.9387 77.9901 55.3563 77.8771 54.7688 77.8807H52.1816C51.016 77.9091 49.9078 78.3922 49.0936 79.2268C48.2794 80.0613 47.8239 81.1811 47.8242 82.347V85.4244" stroke="#1A1A1A" stroke-width="0.86" stroke-miterlimit="10"/>
<path d="M59.2623 98.3872V125.621C59.2492 126.584 58.9232 127.516 58.3338 128.278C57.7443 129.039 56.9232 129.588 55.9943 129.842C55.6043 129.952 55.2011 130.007 54.796 130.005H52.2361C51.075 129.991 49.965 129.526 49.1414 128.707C48.3178 127.889 47.8454 126.782 47.8242 125.621V103.398" stroke="#1A1A1A" stroke-width="0.86" stroke-miterlimit="10"/>
<path d="M55.6934 60.3694V61.1047L55.7206 77.3632" stroke="#1A1A1A" stroke-width="0.86" stroke-miterlimit="10"/>
<path d="M51.2812 77.3634V61.813" stroke="#1A1A1A" stroke-width="0.86" stroke-miterlimit="10"/>
<path d="M25.1109 31.6381V30.8211C25.1109 30.467 25.1109 30.1402 25.1109 29.7862C27.0989 14.1541 40.3889 2.9883 54.8228 4.81296C69.2566 6.63761 79.333 20.7991 77.345 36.4039C76.734 42.2759 74.307 47.8111 70.4018 52.2386C66.4966 56.6661 61.3078 59.7654 55.5581 61.1048C52.9649 61.6059 50.3092 61.6978 47.6875 61.3772C41.551 60.4081 35.9389 57.3454 31.8038 52.709C27.6687 48.0725 25.2655 42.1479 25.002 35.941C25.002 35.7231 25.002 35.5052 25.002 35.3146" stroke="#1A1A1A" stroke-width="0.86" stroke-miterlimit="10"/>
<path d="M25.1109 31.6381V30.8211C25.1109 30.467 25.1109 30.1402 25.1109 29.7862C27.0989 14.1541 40.3889 2.9883 54.8228 4.81296C69.2566 6.63761 79.333 20.7991 77.345 36.4039C76.734 42.2759 74.307 47.8111 70.4018 52.2386C66.4966 56.6661 61.3078 59.7654 55.5581 61.1048C52.9649 61.6059 50.3092 61.6978 47.6875 61.3772C41.551 60.4081 35.9389 57.3454 31.8038 52.709C27.6687 48.0725 25.2655 42.1479 25.002 35.941C25.002 35.7231 25.002 35.5052 25.002 35.3146" stroke="#1A1A1A" stroke-width="0.86" stroke-miterlimit="10"/>
<path d="M19.2549 36.5672C19.2549 36.3221 19.2549 36.0498 19.2549 35.8047" stroke="#1A1A1A" stroke-width="0.86" stroke-miterlimit="10"/>
<path d="M19.2549 36.5672C19.2549 36.3221 19.2549 36.0498 19.2549 35.8047" stroke="#1A1A1A" stroke-width="0.86" stroke-miterlimit="10"/>
<path d="M80.6953 12.874C84.885 20.2057 86.505 28.7271 85.2978 37.0847C84.8604 40.3475 84.0093 43.5414 82.7651 46.5892" stroke="#1A1A1A" stroke-width="0.86" stroke-miterlimit="10" stroke-linecap="round"/>
<path d="M86.7402 6.69214C92.5045 16.7681 94.7288 28.4841 93.0584 39.9716C92.4485 44.4402 91.2773 48.8139 89.5725 52.9893" stroke="#1A1A1A" stroke-width="0.86" stroke-miterlimit="10" stroke-linecap="round"/>
<path d="M93.6846 1.08179C100.833 13.613 103.603 28.1689 101.555 42.4496C100.797 48.0111 99.3417 53.4551 97.2249 58.6536" stroke="#1A1A1A" stroke-width="0.86" stroke-miterlimit="10" stroke-linecap="round"/>
<path d="M17.6484 30.5216C17.7588 28.1975 18.0963 25.8898 18.6561 23.6315C19.3964 20.4275 20.5499 17.3333 22.0875 14.4265" stroke="#1A1A1A" stroke-width="0.86" stroke-miterlimit="10" stroke-linecap="round"/>
<path d="M20.8891 48.1416C19.215 44.3171 18.1933 40.2392 17.8662 36.0771" stroke="#1A1A1A" stroke-width="0.86" stroke-miterlimit="10" stroke-linecap="round"/>
<path d="M9.69629 30.6304C9.76908 27.0751 10.2442 23.5394 11.1124 20.091C12.1438 15.697 13.7268 11.4512 15.8239 7.45459" stroke="#1A1A1A" stroke-width="0.86" stroke-miterlimit="10" stroke-linecap="round"/>
<path d="M14.2721 53.7518C11.7468 48.1733 10.2433 42.1868 9.83301 36.0771" stroke="#1A1A1A" stroke-width="0.86" stroke-miterlimit="10" stroke-linecap="round"/>
<path d="M6.81058 58.6536C0.905979 45.4887 -0.445116 30.732 2.97064 16.7138C4.27311 11.2525 6.24907 5.9741 8.8531 1" stroke="#1A1A1A" stroke-width="0.86" stroke-miterlimit="10" stroke-linecap="round"/>
<path d="M28.568 30.8213H47.4136C48.0449 30.87 48.6313 31.1667 49.0446 31.6463C49.4579 32.126 49.6646 32.7497 49.6196 33.3813C49.6261 34.0397 49.3939 34.6783 48.9659 35.1787C48.7787 35.4116 48.5427 35.6006 48.2745 35.7323C48.0063 35.8641 47.7124 35.9354 47.4136 35.9412H11.3018C10.6706 35.8925 10.0842 35.5958 9.6709 35.1162C9.25758 34.6365 9.05087 34.0128 9.09592 33.3813C9.08933 32.7228 9.32153 32.0842 9.74953 31.5838C9.93674 31.3509 10.1728 31.1619 10.441 31.0302C10.7092 30.8984 11.0031 30.8271 11.3018 30.8213H28.568Z" stroke="#1A1A1A" stroke-width="0.86" stroke-miterlimit="10"/>
<path d="M214.358 281.234C216.483 292.536 225.606 297.738 235.818 298.5C238.893 298.708 241.982 298.562 245.023 298.065" stroke="#1A1A1A" stroke-width="0.86" stroke-miterlimit="10" stroke-linecap="round"/>
<path d="M209.591 457.136H209.128H208.801H208.392L207.875 457.299C207.695 457.329 207.521 457.384 207.357 457.463H207.058L206.404 457.68L204.77 458.307L204.334 458.47L203.272 458.879C200.141 460.104 196.273 461.602 192.079 462.964L191.562 463.127L190.5 463.427L189.955 463.59L189.438 463.726L187.776 464.162L186.251 464.516L183.991 464.952H183.446L181.812 465.17C180.78 465.295 179.76 465.504 178.762 465.796L178.081 466.041L177.646 466.205L177.019 466.477L176.202 466.885C175.939 467.024 175.684 467.178 175.44 467.348L174.895 467.73L174.378 468.165C173.288 469.19 172.495 470.49 172.082 471.928C171.67 473.366 171.654 474.889 172.035 476.335H194.421L234.891 476.526" stroke="#1A1A1A" stroke-width="0.86" stroke-linecap="round" stroke-linejoin="round"/>
<path d="M234.864 476.826H234.892V482H171.846V476.826H194.368H234.864Z" stroke="#1A1A1A" stroke-width="0.86" stroke-linecap="round" stroke-linejoin="round"/>
<path d="M234.863 456.21V456.374V476.772" stroke="#1A1A1A" stroke-width="0.86" stroke-miterlimit="10"/>
<path d="M95.5917 401.252H95.3738H94.9653H94.5568L94.0394 401.416L93.2224 401.661L91.2888 402.342L90.6352 402.587L86.6046 404.166L85.7331 404.493L84.2897 405.065L83.391 405.392C80.4307 406.507 77.4125 407.461 74.3495 408.251L73.3963 408.497L71.1631 408.987L70.2372 409.15L69.3657 409.286H68.3853H67.8406C62.1216 409.94 56.7293 413.126 58.0365 420.398H80.4498L120.919 420.588" stroke="#1A1A1A" stroke-width="0.86" stroke-linecap="round" stroke-linejoin="round"/>
<path d="M120.892 426.062V426.089H57.8457V426.062V420.915H80.3679H120.864H120.892V426.062Z" stroke="#1A1A1A" stroke-width="0.86" stroke-linecap="round" stroke-linejoin="round"/>
<path d="M120.865 401.307V420.915V422.032" stroke="#1A1A1A" stroke-width="0.86" stroke-miterlimit="10"/>
<path d="M184.128 34.2256C189.169 35.363 193.769 37.9469 197.363 41.6604C202.257 46.1856 206.492 51.3741 209.945 57.0746C210.327 57.7282 210.653 58.3273 210.926 58.872L211.171 59.3894C212.778 63.2839 212.151 69.6565 210.681 75.7296C210.354 77.1185 209.973 78.453 209.564 79.8691C207.549 86.5141 204.825 92.2059 203.246 93.2681C201.462 94.3651 199.363 94.8348 197.282 94.6025C192.636 94.1776 188.338 91.9603 185.299 88.4205" stroke="#1A1A1A" stroke-width="0.86" stroke-miterlimit="10" stroke-linecap="round"/>
<path d="M171.654 113.665C172.499 100.62 173.043 89.9449 173.806 75.8923" stroke="#1A1A1A" stroke-width="0.86" stroke-miterlimit="10"/>
<path d="M197.198 94.4387V94.8745C198.233 101.056 198.151 108.682 200.385 114.346" stroke="#1A1A1A" stroke-width="0.86" stroke-miterlimit="10"/>
<path d="M176.804 46.4256C186.826 43.9201 195.867 42.1499 197.174 41.8503" stroke="#1A1A1A" stroke-width="0.86" stroke-miterlimit="10"/>
<path d="M169.422 55.8488C164.329 58.3271 150.359 64.3185 149.297 58.79C148.643 55.1952 158.801 51.3553 169.94 48.2234" stroke="#1A1A1A" stroke-width="0.86" stroke-miterlimit="10"/>
<path d="M198.752 59.4166C200.332 58.0869 202.324 57.3459 204.389 57.3196" stroke="#1A1A1A" stroke-width="0.86" stroke-miterlimit="10" stroke-linecap="round"/>
<path d="M191.098 61.1865C189.946 61.0121 188.769 61.111 187.662 61.4753C186.555 61.8396 185.549 62.4589 184.726 63.2835" stroke="#1A1A1A" stroke-width="0.86" stroke-miterlimit="10" stroke-linecap="round"/>
<path d="M198.506 59.7158C197.907 63.3107 200.576 68.2127 201.802 71.5624C202.619 73.8228 204.089 78.2619 199.814 77.6083" stroke="#1A1A1A" stroke-width="0.86" stroke-miterlimit="10" stroke-linecap="round"/>
<path d="M169.396 60.1788C168.073 60.7992 166.94 61.7632 166.116 62.9703C165.292 64.1774 164.807 65.5833 164.712 67.0417C164.623 69.2983 165.434 71.4978 166.966 73.1573C168.497 74.8168 170.625 75.8005 172.882 75.8926C173.19 75.9198 173.5 75.9198 173.808 75.8926C175.953 76.2068 178.135 75.6559 179.874 74.3612C181.613 73.0665 182.767 71.134 183.081 68.9889C183.395 66.8437 182.844 64.6616 181.549 62.9225C180.255 61.1835 178.322 60.03 176.177 59.7158H176.014" stroke="#1A1A1A" stroke-width="0.86" stroke-miterlimit="10"/>
<path d="M210.571 75.865L211.497 75.7016C213.704 75.2546 215.644 73.9526 216.894 72.08C218.144 70.2074 218.603 67.9163 218.169 65.7069C217.787 64.0695 216.92 62.5855 215.681 61.4487C214.442 60.3118 212.889 59.5749 211.225 59.3342" stroke="#1A1A1A" stroke-width="0.86" stroke-miterlimit="10"/>
<path d="M169.911 67.2055C169.651 64.8724 169.514 62.5269 169.503 60.1793C169.503 58.7903 169.503 57.3197 169.503 55.8764C169.503 53.3436 169.803 50.7564 170.129 48.2509C170.946 41.7421 172.553 35.8324 175.059 33.3814C175.894 32.5845 176.883 31.9667 177.966 31.566C179.049 31.1654 180.202 30.9903 181.354 31.0515C182.507 31.1127 183.635 31.4089 184.67 31.922C185.704 32.435 186.622 33.1541 187.368 34.035" stroke="#1A1A1A" stroke-width="0.86" stroke-linecap="round" stroke-linejoin="round"/>
<path d="M176.312 66.6332C176.312 64.2095 176.175 61.9218 176.175 59.7704C176.09 55.3321 176.29 50.8929 176.775 46.4804C177.728 39.0728 179.906 35.0967 184.128 34.2252C185.202 34.059 186.295 34.059 187.368 34.2252" stroke="#1A1A1A" stroke-width="0.86" stroke-linecap="round" stroke-linejoin="round"/>
<path d="M176.313 66.5789C176.17 65.8051 175.745 65.1117 175.121 64.6322C174.497 64.1527 173.718 63.9211 172.933 63.982C172.149 64.0428 171.414 64.3919 170.872 64.9619C170.329 65.5319 170.017 66.2825 169.995 67.0691C169.978 67.4875 170.045 67.905 170.19 68.2978C170.335 68.6905 170.557 69.0508 170.841 69.3581C171.126 69.6653 171.468 69.9135 171.848 70.0885C172.229 70.2635 172.64 70.3619 173.058 70.378C173.477 70.3941 173.894 70.3276 174.287 70.1823C174.68 70.0371 175.04 69.8159 175.347 69.5314C175.655 69.2469 175.903 68.9047 176.078 68.5242C176.253 68.1438 176.351 67.7326 176.367 67.3142C176.378 67.0678 176.36 66.821 176.313 66.5789Z" stroke="#1A1A1A" stroke-width="0.86" stroke-miterlimit="10"/>
<path d="M131.321 263.859C131.675 246.783 135.461 189.456 138.484 153.563C122.819 159.811 106.849 165.265 90.6343 169.903C87.9654 170.692 69.61 151.084 55.9932 130.142" stroke="#1A1A1A" stroke-width="0.86" stroke-linejoin="round"/>
<path d="M61.8506 114.946C68.196 122.381 91.3991 143.459 94.1224 142.506C102.292 139.429 119.096 130.115 137.696 121.046C143.442 118.323 157.713 118.595 168.497 118.786C168.906 116.967 169.925 115.343 171.384 114.183L171.902 113.965C180.882 111.967 190.174 111.81 199.217 113.502C199.661 113.64 200.083 113.842 200.47 114.102C201.922 115.231 203.088 116.687 203.874 118.35H222.284C224.64 118.326 226.984 117.997 229.256 117.37L248.755 111.923L254.501 110.343" stroke="#1A1A1A" stroke-width="0.86" stroke-linecap="round" stroke-linejoin="round"/>
<path d="M131.514 263.75H235.519H236.499C236.363 261.354 235.083 154.189 235.083 154.189C235.083 154.189 284.567 129.679 285.138 116.988C285.656 105.441 228.275 74.8579 228.275 74.8579L228.111 75.0485L219.941 84.0084L219.751 84.2263L248.754 111.896" stroke="#1A1A1A" stroke-width="0.86" stroke-linecap="round" stroke-linejoin="round"/>
<path d="M227.838 74.6398C226.788 73.9874 225.786 73.2592 224.842 72.4611C224.57 69.4654 224.978 65.0808 223.807 63.5012C222.228 61.3498 219.368 57.183 209.973 57.0469" stroke="#1A1A1A" stroke-width="0.86" stroke-linecap="round" stroke-linejoin="round"/>
<path d="M219.395 83.5451C218.891 82.9137 218.207 82.4487 217.435 82.2106C215.692 82.2106 211.77 82.02 209.973 80.0864" stroke="#1A1A1A" stroke-width="0.86" stroke-linecap="round" stroke-linejoin="round"/>
<path d="M36.8751 456.945C42.726 456.945 47.469 452.202 47.469 446.351C47.469 440.501 42.726 435.758 36.8751 435.758C31.0243 435.758 26.2812 440.501 26.2812 446.351C26.2812 452.202 31.0243 456.945 36.8751 456.945Z" stroke="#1A1A1A" stroke-width="0.86" stroke-miterlimit="10" stroke-linecap="round"/>
<path d="M80.5041 446.352C80.5095 448.448 79.8928 450.499 78.732 452.245C77.5712 453.991 75.9186 455.353 73.9833 456.159C72.048 456.965 69.917 457.178 67.8602 456.773C65.8034 456.367 63.9132 455.36 62.4289 453.88C60.9446 452.399 59.933 450.512 59.522 448.456C59.111 446.4 59.3192 444.269 60.1202 442.331C60.9212 440.394 62.2791 438.738 64.0218 437.572C65.7645 436.407 67.8138 435.785 69.9103 435.785C72.7152 435.785 75.4057 436.898 77.3916 438.878C79.3776 440.859 80.4969 443.547 80.5041 446.352Z" stroke="#1A1A1A" stroke-width="0.86" stroke-miterlimit="10" stroke-linecap="round"/>
<path d="M36.9308 471.107C36.9362 472.154 36.6302 473.179 36.0518 474.052C35.4733 474.925 34.6485 475.607 33.682 476.01C32.7155 476.413 31.6509 476.52 30.6235 476.317C29.5961 476.114 28.6522 475.61 27.9117 474.87C27.1712 474.129 26.6674 473.185 26.4645 472.158C26.2615 471.131 26.3684 470.066 26.7716 469.1C27.1749 468.133 27.8563 467.308 28.7293 466.73C29.6023 466.151 30.6275 465.845 31.6747 465.851C33.0687 465.851 34.4056 466.404 35.3914 467.39C36.3771 468.376 36.9308 469.713 36.9308 471.107Z" stroke="#1A1A1A" stroke-width="0.86" stroke-miterlimit="10" stroke-linecap="round"/>
<path d="M52.4279 471.107C52.4333 472.154 52.1273 473.179 51.5489 474.052C50.9704 474.925 50.1455 475.607 49.179 476.01C48.2125 476.413 47.148 476.52 46.1206 476.317C45.0932 476.114 44.1493 475.61 43.4088 474.87C42.6683 474.129 42.1645 473.185 41.9615 472.158C41.7585 471.131 41.8655 470.066 42.2687 469.1C42.672 468.133 43.3534 467.308 44.2264 466.73C45.0994 466.151 46.1246 465.845 47.1718 465.851C47.8621 465.851 48.5455 465.987 49.1832 466.251C49.8209 466.515 50.4004 466.902 50.8884 467.39C51.3765 467.878 51.7637 468.458 52.0278 469.095C52.292 469.733 52.4279 470.416 52.4279 471.107Z" stroke="#1A1A1A" stroke-width="0.86" stroke-miterlimit="10" stroke-linecap="round"/>
<path d="M67.6222 471.107C67.6276 472.153 67.3224 473.177 66.7451 474.049C66.1679 474.922 65.3446 475.603 64.3797 476.007C63.4148 476.411 62.3517 476.52 61.325 476.319C60.2983 476.118 59.3544 475.617 58.6128 474.879C57.8712 474.142 57.3653 473.2 57.1592 472.175C56.9531 471.149 57.0561 470.085 57.4552 469.118C57.8543 468.151 58.5314 467.325 59.4008 466.743C60.2703 466.161 61.2928 465.851 62.3389 465.851C63.7354 465.851 65.0752 466.403 66.0652 467.388C67.0552 468.373 67.615 469.71 67.6222 471.107Z" stroke="#1A1A1A" stroke-width="0.86" stroke-miterlimit="10" stroke-linecap="round"/>
<path d="M31.7842 466.286V469.99" stroke="#1A1A1A" stroke-width="0.86" stroke-miterlimit="10" stroke-linecap="round"/>
<path d="M43.8213 468.247L46.7353 470.508" stroke="#1A1A1A" stroke-width="0.86" stroke-miterlimit="10" stroke-linecap="round"/>
<path d="M62.8848 471.788L65.7988 474.048" stroke="#1A1A1A" stroke-width="0.86" stroke-miterlimit="10" stroke-linecap="round"/>
<path d="M105.095 453.922H94.3382H91.751V438.808H121.517V453.922H118.903H108.173" stroke="#1A1A1A" stroke-width="0.86" stroke-miterlimit="10"/>
<path d="M94.3125 453.922C94.6005 450.872 96.0161 448.038 98.2825 445.975C100.549 443.913 103.503 442.77 106.568 442.77C109.632 442.77 112.586 443.913 114.853 445.975C117.119 448.038 118.535 450.872 118.823 453.922" stroke="#1A1A1A" stroke-width="0.86" stroke-miterlimit="10"/>
<path d="M107.302 452.506L107.874 452.016L112.531 447.931" stroke="#1A1A1A" stroke-width="0.86" stroke-miterlimit="10" stroke-linecap="round"/>
<path d="M70.6458 445.453L70.2646 445.943L67.1055 450.137" stroke="#1A1A1A" stroke-width="0.86" stroke-miterlimit="10" stroke-linecap="round"/>
<path d="M36.3584 445.861L36.7397 446.352L39.8988 450.518" stroke="#1A1A1A" stroke-width="0.86" stroke-miterlimit="10" stroke-linecap="round"/>
<path d="M121.22 465.442H112.015V476.799H121.22V465.442Z" stroke="#1A1A1A" stroke-width="0.86" stroke-miterlimit="10"/>
<path d="M112.421 470.889H121.108" stroke="#1A1A1A" stroke-width="0.86" stroke-miterlimit="10"/>
<path d="M120.864 420.915H80.5035H58.0902C56.783 413.644 62.1753 410.457 67.8944 409.804H68.439H69.4194L70.2909 409.667L71.2169 409.504L73.45 409.014L74.4032 408.769C77.3989 407.864 80.3443 406.801 83.2269 405.582L84.1256 405.256L85.569 404.684L86.4405 404.357L90.471 402.777L91.1246 402.532L93.0582 401.851L93.8752 401.606L94.3927 401.443H94.8012H95.2097H95.4003H95.5909L96.8981 401.824L97.5518 401.988L98.8862 402.287L100.193 402.559H100.847H101.528L103.516 402.777C104.822 402.846 106.131 402.846 107.438 402.777H107.873H109.072L110.706 402.614L111.55 402.478H111.986H112.421L113.211 402.342L115.009 401.96H115.363H115.635L117.895 401.361L118.876 401.062L120.428 400.544C120.415 400.789 120.415 401.035 120.428 401.28V421.16L120.864 420.915Z" fill="#1A1A1A"/>
<path d="M234.865 476.826H194.369H171.983C171.601 475.38 171.617 473.857 172.03 472.419C172.442 470.981 173.235 469.681 174.325 468.656L174.842 468.22L175.387 467.839C175.631 467.669 175.886 467.514 176.149 467.376L176.966 466.967L177.593 466.695L178.029 466.532L178.709 466.287C179.707 465.995 180.727 465.786 181.76 465.66L183.394 465.442H183.938L186.199 465.007L187.724 464.653L189.385 464.217L189.902 464.081L190.447 463.917L191.509 463.618L192.027 463.454C196.221 462.147 200.197 460.595 203.22 459.369L204.282 458.961L204.717 458.797L206.351 458.171L207.005 457.953H207.305C207.468 457.874 207.643 457.819 207.822 457.79L208.34 457.626H208.748H209.075H209.347V457.899C210.464 458.226 211.58 458.525 212.67 458.743C213.567 458.961 214.476 459.125 215.393 459.233H216.074L217.408 459.369H218.089C222.287 459.587 226.493 459.108 230.535 457.953H230.807L231.652 457.735L232.169 457.572L233.177 457.272L233.694 457.082L234.756 456.755V477.207L234.865 476.826Z" fill="#1A1A1A"/>
<path d="M189 82C189.262 82.7477 189.692 83.4254 190.257 83.9813C190.821 84.5372 191.506 84.9565 192.257 85.207C193.009 85.4576 193.808 85.5328 194.593 85.4268C195.378 85.3209 196.129 85.0366 196.787 84.5958" stroke="#1A1A1A" stroke-width="0.86" stroke-miterlimit="10" stroke-linecap="round"/>
</svg>
